<?xml version="1.0" standalone="no"?>
<!DOCTYPE svg PUBLIC "-//W3C//DTD SVG 20010904//EN"
 "http://www.w3.org/TR/2001/REC-SVG-20010904/DTD/svg10.dtd">
<svg version="1.0" xmlns="http://www.w3.org/2000/svg"
 width="302.000000pt" height="298.000000pt" viewBox="0 0 302.000000 298.000000"
 preserveAspectRatio="xMidYMid meet">

<g transform="translate(0.000000,298.000000) scale(0.100000,-0.100000)"
fill="#000000" stroke="none">
<path d="M2255 2933 c-50 -11 -166 -59 -225 -94 -110 -63 -231 -178 -297 -282
-13 -21 -34 -42 -46 -46 -12 -5 -40 -16 -62 -24 -151 -57 -257 -107 -373 -174
l-43 -25 -62 58 c-34 32 -84 79 -111 104 -27 25 -58 54 -69 64 -54 52 -199
150 -280 191 -104 51 -229 82 -373 92 -97 6 -209 -9 -241 -32 -17 -12 -16 -14
7 -23 14 -6 37 -13 52 -16 83 -18 154 -187 150 -356 -1 -30 -19 -134 -41 -230
-56 -247 -63 -307 -60 -465 l4 -140 48 -99 c39 -79 63 -113 118 -167 38 -37
65 -70 60 -73 -20 -13 -79 -115 -99 -171 -55 -155 -48 -305 13 -255 20 17 113
40 162 40 46 0 61 -13 43 -35 -14 -17 5 -27 75 -39 90 -17 135 -54 306 -248
145 -163 224 -239 322 -308 70 -48 175 -103 234 -120 23 -7 52 -24 64 -36 15
-17 34 -24 58 -24 l35 0 -45 28 c-24 16 -61 47 -81 70 -40 45 -56 54 -36 22
15 -24 6 -35 -20 -21 -70 37 -205 241 -232 352 -65 261 -72 336 -38 427 34 91
52 97 113 41 17 -15 59 -45 95 -67 36 -21 71 -50 77 -63 8 -16 13 -73 13 -167
0 -199 26 -305 97 -400 30 -40 95 -74 145 -76 54 -1 86 28 139 125 48 88 131
189 155 189 21 0 95 38 122 63 l22 21 39 -22 c21 -12 50 -22 65 -22 32 0 32
-3 0 -67 -41 -80 -79 -119 -185 -189 -54 -36 -103 -72 -110 -80 -14 -17 -36
-18 -42 -1 -2 6 -13 -6 -25 -28 -23 -44 -65 -92 -102 -118 l-24 -17 30 0 c31
0 59 24 103 87 23 35 73 72 156 118 177 98 251 144 297 187 29 27 58 46 65 43
20 -7 52 8 113 54 36 27 61 39 73 35 39 -12 97 56 97 116 0 14 5 31 11 37 7 7
4 20 -10 44 -11 19 -20 51 -19 70 0 19 -4 44 -10 55 -16 29 8 40 143 63 l110
19 -66 1 c-41 1 -90 -7 -129 -19 -34 -11 -67 -20 -73 -20 -12 0 -88 47 -125
77 l-27 21 17 74 c8 40 32 132 52 203 59 212 49 341 -41 543 -12 29 -23 58
-23 65 0 7 -14 43 -30 81 -31 72 -92 146 -120 146 -8 0 -24 6 -35 14 -11 7
-31 17 -45 21 -14 4 -47 28 -74 52 -28 24 -63 51 -78 59 -27 14 -29 19 -26 62
l3 47 65 -3 c76 -4 72 5 -13 33 l-62 20 1 80 c1 95 23 169 71 242 38 58 155
170 191 184 13 5 20 13 17 19 -6 10 -81 12 -120 3z m5 -60 c-135 -109 -231
-237 -293 -394 l-15 -36 -88 -7 c-49 -4 -98 -9 -109 -12 -22 -5 -53 11 -43 21
11 11 213 55 229 49 11 -3 18 2 21 14 5 17 -2 20 -51 25 -32 4 -74 4 -94 0
-25 -4 -37 -2 -37 6 0 32 245 256 280 256 8 0 24 9 36 19 23 22 160 85 183 86
8 0 -1 -12 -19 -27z m-2053 -129 c-3 -3 -12 -4 -19 -1 -8 3 -5 6 6 6 11 1 17
-2 13 -5z m233 -20 c41 -8 88 -22 104 -30 16 -8 34 -14 40 -14 16 0 190 -91
194 -101 2 -5 10 -9 18 -9 8 0 14 -4 14 -10 0 -5 6 -10 13 -10 10 0 78 -51
157 -118 8 -7 40 -33 70 -58 30 -25 74 -63 97 -85 23 -21 47 -39 52 -39 17 0
24 -22 10 -32 -10 -6 -7 -7 10 -3 14 5 36 0 57 -11 30 -17 36 -17 44 -4 7 11
-2 21 -36 43 l-45 28 23 17 c13 10 41 27 63 37 22 11 56 29 75 41 19 11 49 24
65 28 26 6 25 3 -13 -18 -64 -37 -102 -66 -102 -77 0 -15 24 -10 85 16 31 14
69 27 83 29 15 2 62 11 105 20 95 21 118 17 53 -8 -56 -21 -47 -36 22 -36 24
0 41 -3 39 -7 -3 -5 27 -8 66 -9 51 0 95 -8 152 -28 86 -30 108 -43 99 -58 -3
-5 5 -6 18 -3 17 4 40 -7 90 -45 62 -47 66 -53 62 -83 -3 -18 1 -44 9 -60 l15
-28 13 46 c7 25 17 45 22 45 5 0 5 -10 1 -22 -10 -31 -11 -168 -2 -168 5 0 8
-9 8 -21 0 -11 11 -36 24 -55 23 -34 24 -34 30 -12 3 13 6 35 6 50 0 15 4 29
10 33 5 3 7 12 4 19 -3 8 -1 17 5 21 19 11 45 -4 68 -38 13 -17 30 -41 38 -53
9 -12 31 -67 50 -124 27 -79 37 -125 41 -204 7 -106 7 -102 -57 -336 -52 -188
-46 -226 44 -271 33 -17 50 -39 30 -39 -5 0 -18 -3 -30 -6 -15 -4 -23 -2 -23
6 0 22 -51 79 -66 73 -8 -3 -14 0 -14 7 0 7 -6 10 -14 7 -22 -9 -27 4 -11 32
75 137 119 446 80 559 -9 24 -12 48 -9 54 4 6 -1 17 -11 24 -10 8 -15 20 -11
29 3 9 2 14 -3 11 -5 -3 -14 1 -21 9 -19 23 -68 18 -95 -9 l-23 -23 -19 24
c-10 13 -27 26 -38 27 -13 2 -21 12 -23 27 -5 44 -25 114 -40 137 -19 29 -66
54 -87 45 -10 -3 -21 0 -25 8 -5 7 -12 10 -17 6 -4 -5 -1 -12 7 -17 12 -8 13
-13 3 -30 -7 -11 -13 -51 -13 -90 0 -38 -2 -70 -5 -70 -3 0 -14 5 -25 12 -16
10 -23 9 -43 -10 l-23 -22 -23 40 c-12 22 -39 56 -59 75 -145 137 -263 -151
-207 -505 18 -109 44 -227 57 -252 7 -15 5 -16 -13 -9 -16 5 -23 18 -26 46 -2
20 -11 51 -19 67 -12 24 -18 27 -29 18 -11 -9 -12 -17 -5 -30 12 -23 13 -100
1 -100 -4 0 -20 11 -35 25 -15 14 -31 25 -36 25 -6 0 -42 20 -81 45 -84 51
-303 152 -339 155 -37 3 -50 1 -50 -8 0 -10 65 -42 84 -42 13 0 159 -66 206
-94 14 -8 32 -17 40 -20 16 -6 52 -28 60 -36 3 -3 22 -14 42 -25 20 -10 34
-23 31 -28 -4 -6 -1 -7 7 -2 7 4 15 4 19 -1 3 -5 18 -17 33 -27 26 -16 26 -17
11 -49 -27 -56 -28 -57 -91 -41 -158 40 -220 53 -252 53 -27 0 -46 10 -80 40
-46 41 -80 51 -80 25 0 -8 7 -15 15 -15 8 0 15 -6 15 -14 0 -8 6 -16 13 -19 6
-3 -8 -3 -33 -1 -338 27 -359 27 -345 5 5 -9 176 -29 287 -34 37 -2 70 -6 74
-9 3 -4 -2 -20 -10 -37 -9 -16 -16 -39 -16 -50 0 -10 -5 -21 -11 -23 -20 -7
-12 -235 9 -260 5 -7 13 -35 17 -63 4 -27 11 -54 15 -60 4 -5 10 -23 13 -40 6
-32 54 -139 87 -193 18 -29 18 -32 2 -23 -9 5 -30 22 -47 37 -16 14 -45 38
-62 51 -18 14 -33 32 -33 39 0 8 -4 13 -9 12 -5 -2 -89 78 -187 177 -170 171
-251 235 -299 235 -12 0 -13 4 -3 25 13 29 1 42 -62 71 -55 26 -188 23 -235
-5 -21 -12 -39 -21 -40 -19 -4 5 19 122 26 133 4 6 10 25 14 44 9 43 61 123
113 177 34 35 192 149 227 163 22 9 113 108 128 140 42 85 -8 148 -86 110 -21
-10 -21 -9 2 10 13 12 36 21 51 21 33 0 48 26 19 35 -10 4 -17 11 -14 16 4 5
-5 9 -19 9 -14 0 -26 5 -26 11 0 6 -7 8 -15 5 -8 -3 -22 -9 -30 -12 -8 -3 -15
-2 -15 2 1 10 70 44 88 44 19 0 14 -18 -5 -23 -10 -3 -1 -5 20 -6 30 -1 39 3
46 22 8 19 10 20 16 5 8 -20 69 -25 80 -7 4 6 13 8 21 5 8 -3 11 0 8 8 -3 7
11 27 30 44 33 29 34 33 32 89 -6 109 -10 121 -92 286 -37 75 -80 144 -119
190 -68 81 -112 127 -120 127 -3 0 -13 8 -23 18 -66 61 -101 92 -107 92 -3 0
-21 11 -38 24 -18 13 -43 27 -57 31 -14 4 -37 16 -51 26 -14 10 -38 21 -53 25
-21 5 -25 9 -14 16 8 6 2 7 -19 3 -20 -4 -33 -3 -33 3 0 6 -13 13 -30 17 -16
4 -30 11 -30 16 0 12 113 3 210 -17z m-15 -107 c118 -59 264 -180 357 -294 72
-89 107 -150 149 -253 29 -72 34 -97 34 -165 0 -57 -5 -89 -18 -112 -20 -37
-51 -50 -73 -32 -19 15 -13 73 12 120 18 35 5 38 -37 8 -29 -20 -69 -85 -69
-112 0 -7 -20 -18 -44 -25 -53 -14 -110 -60 -132 -108 -19 -39 -11 -63 14 -41
21 18 77 47 92 47 6 0 0 -12 -14 -27 -27 -29 -40 -79 -30 -117 8 -33 17 -33
40 2 22 34 44 51 65 52 27 0 29 -23 5 -71 -23 -46 -78 -92 -217 -181 -41 -26
-84 -55 -97 -64 -22 -17 -24 -16 -77 38 -94 98 -156 256 -172 443 -6 77 7 171
63 447 19 92 34 187 34 211 0 50 -34 191 -61 255 -11 24 -19 47 -19 52 0 9
118 -35 195 -73z m1655 -22 c-10 -27 -17 -78 -19 -142 -1 -31 -3 -33 -36 -33
-44 0 -46 18 -8 98 42 92 91 151 63 77z m-430 -174 c0 -9 -24 -21 -41 -21 -16
0 -10 18 9 23 28 8 32 7 32 -2z m128 -38 c-10 -2 -26 -2 -35 0 -10 3 -2 5 17
5 19 0 27 -2 18 -5z m288 -49 c4 -14 3 -29 -2 -34 -12 -12 -89 14 -88 29 1 6
2 16 3 21 0 6 19 10 41 10 34 0 40 -3 46 -26z m132 -515 c12 -26 28 -86 35
-133 12 -83 13 -85 24 -55 10 27 15 30 27 20 24 -20 28 -64 17 -203 -24 -285
-55 -477 -88 -527 l-15 -24 43 9 c24 5 81 9 126 9 77 0 84 -2 110 -28 24 -23
28 -36 28 -80 -1 -94 -92 -226 -181 -263 -53 -22 -110 -18 -129 8 -14 21 -17
21 -38 9 -79 -50 -124 -65 -189 -66 -59 0 -70 3 -105 31 -21 17 -72 81 -113
142 -41 61 -90 126 -107 144 -37 38 -40 48 -18 48 9 0 19 8 23 18 4 9 17 36
30 60 l23 43 59 -46 c33 -26 60 -42 60 -38 0 8 -54 58 -95 87 -43 31 8 30 83
0 8 -4 10 0 6 10 -3 9 -12 16 -20 16 -14 0 -16 4 -39 120 -76 385 -22 731 103
666 77 -40 168 -248 181 -416 4 -45 9 -68 13 -57 9 22 -7 161 -29 249 -14 54
-15 71 -5 93 11 23 15 25 28 14 20 -16 54 -83 54 -106 0 -12 3 -14 11 -6 8 8
8 40 1 111 -14 134 0 196 41 190 15 -2 30 -19 45 -49z m-1374 -44 c5 -22 4
-26 -4 -15 -5 8 -10 24 -10 34 0 26 6 18 14 -19z m1625 -156 c10 -17 27 -71
36 -119 15 -77 16 -103 6 -186 -14 -119 -21 -135 -45 -100 -21 33 -36 33 -67
-1 -43 -48 -66 -114 -75 -214 -5 -53 -11 -68 -25 -72 -27 -7 -38 11 -28 47 18
62 48 244 54 331 17 255 44 345 101 345 16 0 31 -10 43 -31z m-21 -455 c3 -31
1 -37 -9 -26 -18 17 -25 15 -49 -10 -24 -26 -26 -18 -4 25 36 70 57 73 62 11z
m-1062 -245 c3 -6 19 -9 35 -5 15 3 31 1 34 -4 3 -6 21 -10 38 -10 18 -1 43
-7 57 -15 l25 -14 -35 -2 c-19 -1 -50 -3 -68 -5 -25 -3 -45 5 -85 31 -39 27
-47 35 -30 35 12 0 25 -5 29 -11z m1273 -130 c26 -63 26 -72 4 -61 -10 5 -38
10 -63 11 -25 2 -46 4 -48 5 -1 2 1 17 4 35 6 28 40 55 75 60 4 1 16 -22 28
-50z m-2027 -21 c-9 -9 -15 -9 -24 0 -9 9 -7 12 12 12 19 0 21 -3 12 -12z
m2041 -87 c5 -5 7 -29 3 -55 -7 -45 -18 -57 -32 -34 -5 8 -10 7 -18 -4 -13
-17 -136 -100 -136 -91 0 4 8 15 17 25 12 14 14 21 5 30 -9 9 -24 -1 -60 -38
-74 -75 -129 -117 -135 -102 -4 9 -6 7 -6 -3 -1 -17 -28 -45 -36 -37 -3 2 10
32 29 67 26 49 42 66 76 84 24 11 51 28 60 37 23 23 80 109 80 122 0 6 7 5 17
-3 15 -12 16 -12 10 5 -7 17 -3 18 54 13 34 -3 66 -10 72 -16z"/>
<path d="M2020 2740 c0 -5 5 -10 10 -10 6 0 10 5 10 10 0 6 -4 10 -10 10 -5 0
-10 -4 -10 -10z"/>
<path d="M2055 2710 c-3 -5 -1 -10 4 -10 6 0 11 5 11 10 0 6 -2 10 -4 10 -3 0
-8 -4 -11 -10z"/>
<path d="M1930 2605 c0 -8 5 -15 10 -15 6 0 10 7 10 15 0 8 -4 15 -10 15 -5 0
-10 -7 -10 -15z"/>
<path d="M1820 2565 c-11 -13 -10 -14 4 -9 9 3 16 10 16 15 0 13 -6 11 -20 -6z"/>
<path d="M1960 2570 c0 -5 5 -10 10 -10 6 0 10 5 10 10 0 6 -4 10 -10 10 -5 0
-10 -4 -10 -10z"/>
<path d="M388 2703 c6 -2 18 -2 25 0 6 3 1 5 -13 5 -14 0 -19 -2 -12 -5z"/>
<path d="M535 2630 c-3 -5 1 -10 10 -10 9 0 13 5 10 10 -3 6 -8 10 -10 10 -2
0 -7 -4 -10 -10z"/>
<path d="M715 2580 c3 -5 8 -10 11 -10 2 0 4 5 4 10 0 6 -5 10 -11 10 -5 0 -7
-4 -4 -10z"/>
<path d="M750 2560 c0 -5 5 -10 10 -10 6 0 10 5 10 10 0 6 -4 10 -10 10 -5 0
-10 -4 -10 -10z"/>
<path d="M705 2490 c-3 -5 -1 -10 4 -10 6 0 11 5 11 10 0 6 -2 10 -4 10 -3 0
-8 -4 -11 -10z"/>
<path d="M890 2471 c0 -5 5 -13 10 -16 6 -3 10 -2 10 4 0 5 -4 13 -10 16 -5 3
-10 2 -10 -4z"/>
<path d="M765 2460 c-3 -5 -2 -10 4 -10 5 0 13 5 16 10 3 6 2 10 -4 10 -5 0
-13 -4 -16 -10z"/>
<path d="M874 2425 c26 -20 42 -19 22 0 -8 8 -21 15 -28 15 -8 -1 -6 -6 6 -15z"/>
<path d="M780 2402 c0 -5 7 -15 15 -22 8 -7 15 -9 15 -6 0 4 -7 14 -15 22 -8
9 -15 11 -15 6z"/>
<path d="M987 2389 c7 -7 15 -10 18 -7 3 3 -2 9 -12 12 -14 6 -15 5 -6 -5z"/>
<path d="M1066 2321 c-3 -5 1 -12 10 -15 22 -8 25 -4 9 11 -8 7 -16 9 -19 4z"/>
<path d="M1528 2323 c6 -2 18 -2 25 0 6 3 1 5 -13 5 -14 0 -19 -2 -12 -5z"/>
<path d="M1550 2282 c0 -7 -6 -12 -13 -12 -19 0 -108 -90 -101 -101 9 -16 -7
-33 -18 -18 -7 10 -8 7 -4 -10 3 -14 0 -31 -6 -39 -17 -19 -23 -213 -8 -241 6
-13 14 -20 17 -17 3 3 7 51 9 105 3 104 22 171 57 200 10 7 17 20 17 28 0 7 9
24 21 36 23 24 43 67 34 75 -3 3 -5 0 -5 -6z"/>
<path d="M1450 2255 c-10 -12 -10 -15 3 -15 19 0 31 16 18 24 -5 3 -14 -1 -21
-9z"/>
<path d="M1575 2260 c-3 -5 -1 -10 4 -10 6 0 11 5 11 10 0 6 -2 10 -4 10 -3 0
-8 -4 -11 -10z"/>
<path d="M1728 2263 c7 -3 16 -2 19 1 4 3 -2 6 -13 5 -11 0 -14 -3 -6 -6z"/>
<path d="M940 2250 c0 -5 5 -10 10 -10 6 0 10 5 10 10 0 6 -4 10 -10 10 -5 0
-10 -4 -10 -10z"/>
<path d="M917 2218 c10 -21 21 -38 26 -38 13 0 7 15 -18 45 l-25 30 17 -37z"/>
<path d="M1605 2227 c-27 -17 -48 -37 -38 -37 4 0 22 11 38 25 32 26 32 31 0
12z"/>
<path d="M1657 2221 c-16 -10 -40 -35 -54 -56 -45 -67 -33 -229 24 -303 14
-18 28 -31 31 -27 4 3 12 34 19 67 7 34 25 79 40 101 27 39 28 39 76 34 60 -8
119 -41 174 -99 15 -16 30 -28 33 -28 13 0 20 44 8 51 -6 4 -8 18 -4 34 5 20
3 26 -6 23 -12 -4 -48 31 -48 49 -1 9 -94 103 -103 103 -3 0 -27 13 -54 29
-65 40 -101 46 -136 22z"/>
<path d="M1235 2190 c-3 -5 1 -10 10 -10 9 0 13 5 10 10 -3 6 -8 10 -10 10 -2
0 -7 -4 -10 -10z"/>
<path d="M2018 2183 c7 -3 16 -2 19 1 4 3 -2 6 -13 5 -11 0 -14 -3 -6 -6z"/>
<path d="M1347 2133 c-22 -62 -23 -158 -2 -149 10 3 15 -1 15 -11 0 -9 3 -13
7 -10 3 4 5 38 4 76 -1 40 2 72 8 76 16 9 14 65 -2 65 -7 0 -21 -21 -30 -47z"/>
<path d="M1545 2069 c-4 -6 -5 -12 -2 -15 2 -3 7 2 10 11 7 17 1 20 -8 4z"/>
<path d="M1041 2024 c0 -11 3 -14 6 -6 3 7 2 16 -1 19 -3 4 -6 -2 -5 -13z"/>
<path d="M1020 1984 c0 -8 5 -12 10 -9 6 3 10 10 10 16 0 5 -4 9 -10 9 -5 0
-10 -7 -10 -16z"/>
<path d="M1848 1983 c7 -3 16 -2 19 1 4 3 -2 6 -13 5 -11 0 -14 -3 -6 -6z"/>
<path d="M1059 1952 c-3 -20 -2 -29 4 -23 5 5 7 19 5 32 -3 20 -5 19 -9 -9z"/>
<path d="M2241 1934 c0 -11 3 -14 6 -6 3 7 2 16 -1 19 -3 4 -6 -2 -5 -13z"/>
<path d="M1356 1917 c3 -10 9 -15 12 -12 3 3 0 11 -7 18 -10 9 -11 8 -5 -6z"/>
<path d="M1928 1873 c7 -3 16 -2 19 1 4 3 -2 6 -13 5 -11 0 -14 -3 -6 -6z"/>
<path d="M1755 1850 c-3 -5 -1 -10 4 -10 6 0 11 5 11 10 0 6 -2 10 -4 10 -3 0
-8 -4 -11 -10z"/>
<path d="M1910 1829 c0 -5 5 -7 10 -4 6 3 10 8 10 11 0 2 -4 4 -10 4 -5 0 -10
-5 -10 -11z"/>
<path d="M1980 1790 c0 -5 5 -10 11 -10 5 0 7 5 4 10 -3 6 -8 10 -11 10 -2 0
-4 -4 -4 -10z"/>
<path d="M1956 1755 c4 -8 8 -15 10 -15 2 0 4 7 4 15 0 8 -4 15 -10 15 -5 0
-7 -7 -4 -15z"/>
<path d="M2006 1761 c-4 -7 -5 -15 -2 -18 9 -9 19 4 14 18 -4 11 -6 11 -12 0z"/>
<path d="M2285 1720 c3 -5 10 -10 16 -10 5 0 9 5 9 10 0 6 -7 10 -16 10 -8 0
-12 -4 -9 -10z"/>
<path d="M861 1697 c2 -1 12 -9 22 -16 15 -12 17 -12 11 3 -3 9 -13 16 -22 16
-8 0 -13 -1 -11 -3z"/>
<path d="M928 1693 c7 -3 16 -2 19 1 4 3 -2 6 -13 5 -11 0 -14 -3 -6 -6z"/>
<path d="M830 1680 c0 -5 5 -10 11 -10 5 0 7 5 4 10 -3 6 -8 10 -11 10 -2 0
-4 -4 -4 -10z"/>
<path d="M2500 1666 c0 -8 5 -18 10 -21 6 -3 10 3 10 14 0 12 -4 21 -10 21 -5
0 -10 -6 -10 -14z"/>
<path d="M825 1610 c3 -5 8 -10 11 -10 2 0 4 5 4 10 0 6 -5 10 -11 10 -5 0 -7
-4 -4 -10z"/>
<path d="M800 1415 c0 -8 5 -15 10 -15 6 0 10 7 10 15 0 8 -4 15 -10 15 -5 0
-10 -7 -10 -15z"/>
<path d="M775 1380 c-3 -5 -1 -10 4 -10 6 0 11 5 11 10 0 6 -2 10 -4 10 -3 0
-8 -4 -11 -10z"/>
<path d="M768 1323 c7 -3 16 -2 19 1 4 3 -2 6 -13 5 -11 0 -14 -3 -6 -6z"/>
<path d="M1270 1280 c0 -5 7 -10 15 -10 8 0 15 5 15 10 0 6 -7 10 -15 10 -8 0
-15 -4 -15 -10z"/>
<path d="M1398 1273 c7 -3 16 -2 19 1 4 3 -2 6 -13 5 -11 0 -14 -3 -6 -6z"/>
<path d="M1315 1260 c4 -6 11 -8 16 -5 14 9 11 15 -7 15 -8 0 -12 -5 -9 -10z"/>
<path d="M1620 1150 c0 -5 5 -10 10 -10 6 0 10 5 10 10 0 6 -4 10 -10 10 -5 0
-10 -4 -10 -10z"/>
<path d="M1560 1130 c0 -5 5 -10 11 -10 5 0 7 5 4 10 -3 6 -8 10 -11 10 -2 0
-4 -4 -4 -10z"/>
<path d="M1425 1100 c11 -5 27 -9 35 -9 13 -1 13 0 0 9 -8 5 -24 9 -35 9 l-20
0 20 -9z"/>
<path d="M1478 1073 c7 -3 16 -2 19 1 4 3 -2 6 -13 5 -11 0 -14 -3 -6 -6z"/>
<path d="M1290 1050 c0 -5 5 -10 10 -10 6 0 10 5 10 10 0 6 -4 10 -10 10 -5 0
-10 -4 -10 -10z"/>
<path d="M978 1033 c7 -3 16 -2 19 1 4 3 -2 6 -13 5 -11 0 -14 -3 -6 -6z"/>
<path d="M1105 1030 c3 -5 8 -10 11 -10 2 0 4 5 4 10 0 6 -5 10 -11 10 -5 0
-7 -4 -4 -10z"/>
<path d="M1245 1030 c3 -5 10 -10 16 -10 5 0 9 5 9 10 0 6 -7 10 -16 10 -8 0
-12 -4 -9 -10z"/>
<path d="M1321 1014 c0 -11 3 -14 6 -6 3 7 2 16 -1 19 -3 4 -6 -2 -5 -13z"/>
<path d="M2450 990 c0 -5 5 -10 11 -10 5 0 7 5 4 10 -3 6 -8 10 -11 10 -2 0
-4 -4 -4 -10z"/>
<path d="M625 870 c3 -5 10 -10 16 -10 5 0 9 5 9 10 0 6 -7 10 -16 10 -8 0
-12 -4 -9 -10z"/>
<path d="M920 640 c0 -5 5 -10 11 -10 5 0 7 5 4 10 -3 6 -8 10 -11 10 -2 0 -4
-4 -4 -10z"/>
<path d="M900 603 c0 -9 36 -43 45 -43 3 0 5 3 5 8 -1 10 -50 45 -50 35z"/>
<path d="M1145 430 c3 -5 8 -10 11 -10 2 0 4 5 4 10 0 6 -5 10 -11 10 -5 0 -7
-4 -4 -10z"/>
<path d="M1175 321 c-3 -5 -1 -12 5 -16 5 -3 10 1 10 9 0 18 -6 21 -15 7z"/>
<path d="M1909 1253 c-21 -42 -24 -63 -24 -168 l0 -120 -27 0 c-14 0 -30 -3
-34 -7 -4 -5 13 -8 38 -8 84 0 278 -62 278 -89 0 -5 -9 -15 -19 -22 -19 -14
-25 -28 -22 -60 0 -9 28 -31 61 -48 33 -18 60 -37 60 -42 0 -27 35 -17 90 26
93 71 99 100 29 135 -25 13 -58 20 -98 20 -33 0 -63 5 -67 11 -9 15 -128 69
-153 69 -31 0 -32 11 -5 83 29 83 48 199 38 235 -7 27 -8 27 -13 -8 l-6 -35
-22 38 c-18 29 -28 37 -52 37 -24 0 -32 -7 -52 -47z m86 -14 c19 -36 19 -45 0
-29 -35 29 -70 -16 -85 -110 -7 -45 -7 -44 -9 19 -1 51 4 73 25 111 29 54 45
56 69 9z m-88 -246 c-3 -10 -5 -4 -5 12 0 17 2 24 5 18 2 -7 2 -21 0 -30z
m397 -143 c31 -11 34 -35 7 -50 -39 -20 -131 -7 -131 20 0 13 51 39 77 40 12
0 33 -4 47 -10z"/>
<path d="M1670 856 c0 -6 110 -56 124 -56 6 1 -9 11 -34 24 -49 26 -90 40 -90
32z"/>
<path d="M1410 890 c0 -5 4 -10 9 -10 6 0 13 5 16 10 3 6 -1 10 -9 10 -9 0
-16 -4 -16 -10z"/>
<path d="M2568 753 c6 -2 18 -2 25 0 6 3 1 5 -13 5 -14 0 -19 -2 -12 -5z"/>
<path d="M2532 635 c0 -16 2 -22 5 -12 2 9 2 23 0 30 -3 6 -5 -1 -5 -18z"/>
<path d="M2592 635 c0 -16 2 -22 5 -12 2 9 2 23 0 30 -3 6 -5 -1 -5 -18z"/>
<path d="M2630 630 c0 -5 5 -10 11 -10 5 0 7 5 4 10 -3 6 -8 10 -11 10 -2 0
-4 -4 -4 -10z"/>
<path d="M2477 603 c-4 -3 -7 -11 -7 -17 0 -6 5 -5 12 2 6 6 9 14 7 17 -3 3
-9 2 -12 -2z"/>
<path d="M2360 490 c0 -5 5 -10 11 -10 5 0 7 5 4 10 -3 6 -8 10 -11 10 -2 0
-4 -4 -4 -10z"/>
</g>
</svg>
