<?xml version="1.0" standalone="no"?>
<!DOCTYPE svg PUBLIC "-//W3C//DTD SVG 20010904//EN"
 "http://www.w3.org/TR/2001/REC-SVG-20010904/DTD/svg10.dtd">
<svg version="1.0" xmlns="http://www.w3.org/2000/svg"
 width="640.000000pt" height="640.000000pt" viewBox="0 0 640.000000 640.000000"
 preserveAspectRatio="xMidYMid meet">

<g transform="translate(0.000000,640.000000) scale(0.100000,-0.100000)"
fill="#000000" stroke="none">
<path d="M4780 6268 c-86 -14 -272 -76 -294 -98 -5 -5 -17 -10 -25 -10 -18 0
-164 -71 -169 -82 -2 -5 -8 -8 -13 -8 -14 0 -115 -67 -203 -135 -100 -78 -309
-291 -351 -360 -11 -16 -25 -37 -33 -45 -7 -8 -31 -43 -53 -77 -41 -64 -73
-87 -137 -99 -20 -4 -59 -17 -87 -29 -27 -12 -66 -26 -85 -30 -19 -4 -65 -23
-101 -41 -36 -19 -70 -34 -75 -34 -5 0 -43 -15 -84 -33 -68 -30 -103 -48 -180
-92 -14 -8 -41 -22 -60 -30 -19 -9 -60 -31 -90 -50 -30 -19 -65 -39 -78 -45
-13 -5 -30 -17 -38 -25 -9 -8 -31 -15 -49 -15 -30 0 -51 17 -186 148 -178 174
-208 201 -274 254 -27 22 -60 53 -73 69 -13 16 -29 29 -36 29 -7 0 -28 16 -47
36 -32 33 -113 94 -126 94 -5 0 -43 30 -112 88 -21 17 -45 32 -53 32 -8 0 -23
9 -33 20 -9 10 -33 24 -52 31 -20 6 -55 24 -78 40 -24 16 -46 29 -50 29 -4 0
-44 17 -89 39 -44 21 -97 41 -116 44 -19 4 -64 14 -100 22 -36 9 -101 22 -145
30 -44 8 -100 20 -125 27 -65 17 -468 17 -540 -1 -88 -21 -138 -39 -159 -58
-20 -17 -20 -17 7 -35 15 -10 42 -18 61 -18 42 0 149 -50 176 -82 25 -30 85
-118 85 -126 0 -3 6 -13 14 -21 27 -30 78 -194 86 -276 4 -44 13 -109 19 -145
16 -83 0 -258 -34 -370 -7 -25 -23 -90 -35 -145 -12 -55 -27 -115 -32 -133 -5
-18 -14 -56 -18 -85 -5 -29 -18 -95 -30 -147 -54 -246 -74 -445 -66 -690 6
-208 16 -268 71 -405 83 -208 178 -337 390 -532 19 -17 35 -35 35 -40 0 -4
-23 -33 -50 -63 -27 -30 -64 -83 -82 -117 -18 -35 -36 -63 -40 -63 -4 0 -8 -7
-8 -15 0 -8 -7 -31 -16 -52 -9 -21 -21 -47 -25 -58 -21 -48 -41 -128 -60 -240
-24 -139 -19 -270 9 -306 l17 -20 70 36 c39 20 93 43 120 51 68 20 274 30 303
15 28 -15 28 -37 1 -51 -12 -7 -19 -19 -17 -32 3 -22 60 -43 148 -54 56 -7
117 -27 167 -54 21 -11 41 -20 46 -20 27 0 222 -183 338 -316 24 -29 67 -78
94 -109 28 -32 68 -77 90 -101 22 -23 45 -48 50 -55 26 -35 191 -218 223 -247
90 -81 245 -205 342 -272 100 -71 345 -201 403 -215 15 -4 30 -11 33 -16 3 -5
13 -9 23 -9 31 0 114 -41 146 -72 47 -47 154 -112 224 -137 53 -19 79 -23 150
-19 74 3 95 9 150 38 72 39 158 122 212 207 21 32 46 68 56 80 35 43 192 151
313 215 91 48 143 78 154 89 6 5 18 9 27 9 9 0 22 6 28 14 7 8 35 25 64 39
124 60 396 264 412 310 7 20 61 24 67 5 6 -16 74 13 138 58 25 17 59 39 75 47
17 9 50 34 75 56 49 44 60 47 90 29 15 -10 27 -8 63 10 42 21 107 89 107 112
0 6 6 21 14 33 8 12 17 51 21 87 3 36 11 70 17 77 6 7 28 10 61 8 49 -4 49 -4
12 4 -21 5 -41 14 -43 20 -2 7 -15 16 -28 21 -16 7 -25 20 -30 47 -4 21 -13
47 -20 58 -8 12 -12 46 -11 86 1 48 -3 72 -16 92 -27 42 -22 63 23 86 47 24
166 48 384 76 66 8 121 17 123 19 3 2 -30 7 -73 11 -112 11 -325 -18 -364 -49
-8 -7 -45 -18 -82 -25 l-67 -13 -56 39 c-30 21 -70 46 -87 55 -17 9 -36 22
-41 27 -6 6 -18 11 -27 11 -9 0 -29 13 -45 30 l-28 29 7 102 c3 56 10 107 15
113 5 6 13 31 19 56 6 25 15 60 21 78 37 108 49 150 99 337 l37 140 0 230 c0
211 -2 237 -23 310 -13 44 -28 98 -33 120 -5 22 -16 54 -23 70 -32 70 -46 107
-46 120 0 8 -6 18 -13 22 -7 4 -36 80 -65 167 -48 143 -65 184 -127 305 -10
18 -43 59 -74 90 -47 48 -68 61 -126 80 -38 13 -79 31 -90 41 -11 10 -38 22
-59 26 -30 5 -57 23 -105 68 -74 69 -173 146 -188 146 -5 0 -27 15 -49 34 -40
34 -41 36 -42 103 0 46 4 76 15 92 14 22 19 23 87 18 39 -4 92 -9 118 -13 26
-4 55 -3 64 0 15 6 13 9 -12 22 -34 18 -153 58 -204 69 -19 4 -45 16 -57 28
-21 19 -23 29 -23 126 0 58 7 138 15 176 21 100 45 188 56 199 5 6 9 19 9 30
0 19 37 81 110 185 24 34 255 271 264 271 3 0 20 14 38 30 18 17 50 35 71 41
33 9 36 12 27 29 -9 16 -21 20 -70 20 -32 0 -64 2 -72 4 -7 2 -38 -1 -68 -6z
m28 -86 c2 -7 -4 -15 -14 -19 -19 -7 -40 -24 -84 -65 -15 -16 -31 -28 -34 -28
-10 0 -76 -70 -76 -81 0 -5 -11 -14 -25 -19 -14 -5 -44 -36 -67 -69 -24 -33
-49 -60 -55 -60 -7 -1 -13 -5 -13 -9 0 -5 -27 -40 -60 -78 -33 -38 -60 -77
-60 -87 0 -11 -9 -21 -20 -24 -14 -4 -20 -14 -20 -34 0 -15 -6 -32 -13 -36
-20 -13 -73 -114 -81 -155 -4 -21 -11 -38 -16 -38 -6 0 -10 -13 -10 -29 0 -15
-9 -39 -19 -52 -10 -14 -21 -36 -23 -49 -3 -25 -5 -25 -103 -27 -97 -2 -187
-7 -326 -19 -53 -5 -69 -3 -82 11 -24 23 -21 35 8 35 14 0 28 7 31 15 4 10 20
15 46 15 23 0 57 4 77 10 134 35 214 52 269 57 54 5 62 4 62 -11 0 -10 5 -14
10 -11 6 3 10 16 10 27 0 12 7 29 16 39 14 16 14 18 -5 28 -17 10 -311 16
-361 8 -8 -1 -17 1 -20 5 -7 10 73 118 87 118 7 0 15 11 19 24 3 13 16 29 30
36 13 8 24 17 24 22 0 12 64 78 76 78 4 0 27 19 50 43 65 65 79 77 97 77 10 0
17 4 17 9 0 8 44 45 165 136 25 19 45 19 45 0 0 -18 12 -19 28 -3 15 15 16 32
2 23 -5 -3 -10 -2 -10 4 0 6 19 20 43 32 23 12 48 26 55 32 20 16 124 57 145
57 9 0 17 5 17 10 0 6 6 10 13 10 8 0 24 9 37 20 13 11 36 20 51 20 15 0 31 5
34 11 8 12 27 7 33 -9z m-4332 -307 c4 -8 15 -15 26 -15 10 0 17 4 14 9 -10
15 22 21 54 9 17 -6 52 -8 78 -5 25 3 57 0 71 -5 15 -6 44 -10 67 -9 23 1 61
-5 85 -13 24 -8 69 -18 99 -21 30 -4 71 -12 90 -19 19 -8 61 -21 93 -31 31
-10 57 -21 57 -25 0 -4 18 -10 40 -14 22 -3 55 -15 72 -26 18 -11 39 -20 47
-20 21 0 91 -32 91 -42 0 -5 24 -19 54 -32 29 -13 57 -29 60 -35 4 -6 15 -11
25 -11 22 0 73 -38 66 -50 -3 -4 11 -11 30 -14 20 -4 36 -14 40 -25 3 -10 18
-21 34 -24 16 -3 35 -13 44 -21 8 -8 30 -25 48 -38 83 -56 148 -109 192 -157
27 -28 55 -51 63 -51 8 0 17 -7 20 -15 4 -8 11 -15 18 -15 6 0 32 -21 57 -48
25 -26 58 -56 73 -67 15 -11 37 -28 49 -37 12 -10 37 -30 56 -45 19 -16 56
-49 81 -75 26 -27 53 -48 62 -48 8 0 25 -11 38 -25 l23 -24 -27 -10 c-29 -12
-34 -26 -10 -35 26 -10 34 -7 34 14 0 15 7 20 29 20 17 0 32 -4 35 -9 15 -23
99 -62 122 -57 21 6 24 12 24 49 0 29 -3 38 -10 27 -8 -12 -11 -12 -27 2 -10
8 -31 22 -48 31 -29 14 -85 61 -85 70 0 3 10 7 23 11 12 3 38 19 57 36 18 16
42 30 51 30 10 0 23 9 29 19 5 11 24 22 42 26 46 9 88 26 88 35 0 4 19 18 43
31 23 12 53 28 67 35 14 8 35 14 46 14 12 0 27 7 34 15 14 17 60 21 60 5 0 -5
-11 -10 -24 -10 -13 0 -26 -7 -30 -15 -3 -8 -13 -15 -23 -15 -10 0 -29 -9 -43
-20 -14 -11 -30 -20 -37 -20 -6 0 -13 -4 -15 -8 -1 -5 -24 -23 -51 -41 -26
-17 -47 -36 -47 -41 0 -6 -6 -10 -12 -10 -29 0 -41 -17 -29 -39 15 -27 19 -27
104 13 174 81 188 86 237 86 28 0 50 4 50 9 0 8 34 14 133 26 20 2 46 9 56 14
10 6 48 13 85 17 37 4 69 11 72 15 3 5 51 9 106 9 56 0 99 -2 96 -5 -2 -3 -45
-9 -94 -14 -77 -7 -188 -38 -219 -61 -5 -4 -23 -10 -40 -14 l-30 -8 34 -14
c19 -8 67 -14 111 -14 93 0 116 -6 99 -26 -19 -23 13 -27 65 -10 58 20 82 20
136 1 23 -8 59 -15 79 -15 20 -1 54 -8 76 -16 22 -8 63 -21 91 -28 70 -18 234
-93 234 -108 0 -3 -9 -10 -20 -13 -11 -3 -20 -11 -20 -16 0 -14 32 -11 50 6
22 20 50 10 144 -53 71 -46 95 -66 161 -131 37 -36 41 -46 25 -56 -5 -3 -9
-32 -9 -65 1 -44 6 -63 20 -76 10 -9 17 -20 14 -24 -2 -4 0 -20 4 -36 8 -26 9
-27 16 -9 4 11 15 41 26 66 10 26 18 63 17 84 -1 38 14 57 39 48 16 -6 17 -35
2 -50 -16 -16 -21 -67 -21 -205 0 -71 -4 -131 -9 -134 -6 -3 -5 -11 2 -20 10
-12 14 -12 20 -3 4 8 11 -13 14 -48 6 -46 11 -60 21 -56 8 3 14 -1 14 -10 0
-9 10 -28 23 -44 13 -15 27 -37 31 -48 7 -19 8 -19 18 -1 6 10 13 57 16 103 4
67 9 89 24 103 15 14 17 23 10 37 -22 43 21 72 70 47 34 -17 77 -61 78 -80 0
-10 37 -60 70 -94 21 -21 80 -152 80 -176 0 -11 7 -29 15 -40 8 -10 15 -25 15
-33 0 -8 8 -32 19 -55 31 -67 43 -125 51 -231 3 -55 8 -95 9 -90 1 6 6 1 11
-10 11 -26 11 -236 0 -300 -5 -27 -15 -84 -21 -125 -7 -41 -18 -79 -26 -83 -7
-4 -13 -23 -13 -41 0 -18 -9 -45 -20 -59 -15 -18 -19 -34 -14 -52 7 -27 -16
-119 -41 -168 -8 -16 -15 -43 -15 -60 0 -18 -7 -41 -15 -51 -8 -11 -15 -41
-15 -67 0 -29 -6 -51 -15 -59 -8 -7 -15 -19 -15 -27 0 -8 7 -21 15 -29 8 -9
15 -33 15 -56 0 -42 21 -78 46 -78 7 0 15 -8 19 -19 3 -10 38 -35 77 -55 40
-21 78 -42 85 -48 17 -13 17 -28 0 -28 -7 0 -29 -9 -50 -20 -52 -28 -67 -26
-67 10 0 16 -6 33 -13 37 -8 4 -18 15 -23 24 -5 9 -26 35 -47 58 -30 33 -41
40 -52 31 -10 -8 -17 -6 -29 11 -12 17 -21 20 -46 16 -21 -5 -32 -2 -36 6 -6
16 40 100 49 90 4 -3 7 12 7 33 0 22 7 49 15 60 8 10 15 29 15 40 0 19 18 69
50 139 16 34 32 107 39 178 3 37 12 71 18 75 26 17 33 563 7 580 -13 8 -26 76
-28 142 -1 38 -5 47 -28 58 -28 13 -38 45 -18 57 6 3 10 13 10 21 0 8 -4 14
-10 14 -5 0 -10 -7 -10 -15 0 -25 -24 -17 -41 14 -16 27 -50 41 -105 41 -33 0
-93 -32 -100 -52 -3 -10 -10 -18 -15 -18 -5 0 -9 -7 -9 -15 0 -24 -18 -18 -37
12 -39 60 -80 87 -118 77 -25 -6 -25 -6 -25 62 -1 45 -6 76 -15 88 -8 11 -15
27 -15 37 0 33 -34 125 -62 166 -16 24 -49 54 -73 69 -39 22 -52 25 -94 19
-43 -6 -51 -10 -62 -38 -7 -18 -19 -40 -27 -49 -11 -13 -15 -53 -17 -170 -2
-84 -3 -154 -4 -156 -1 -2 -16 8 -33 21 -54 39 -64 39 -108 0 -22 -20 -40 -42
-40 -50 0 -7 -4 -13 -10 -13 -5 0 -10 8 -10 19 0 10 -7 24 -15 31 -8 7 -15 21
-15 31 0 11 -6 19 -14 19 -16 0 -29 41 -17 53 5 5 12 0 16 -13 6 -19 28 -25
26 -7 -1 4 -1 16 -1 27 0 15 -7 20 -25 20 -14 0 -25 -4 -25 -10 0 -19 -20 -10
-29 13 -5 12 -28 38 -51 57 -24 19 -55 45 -70 57 -15 12 -48 25 -76 28 -83 11
-155 -41 -209 -150 -10 -22 -27 -51 -36 -65 -9 -14 -20 -47 -24 -75 -4 -27
-10 -54 -15 -60 -4 -5 -11 -41 -15 -80 -4 -38 -13 -85 -20 -102 -16 -37 -12
-401 4 -475 6 -24 13 -79 16 -123 4 -44 13 -99 21 -123 8 -23 14 -59 14 -80 0
-20 7 -46 15 -56 8 -11 15 -39 15 -62 0 -23 7 -61 15 -84 8 -23 15 -54 15 -67
0 -14 9 -38 21 -54 19 -27 15 -40 -6 -20 -6 5 -23 11 -40 13 -27 3 -30 6 -31
43 -2 68 -22 166 -37 184 -8 9 -18 26 -21 39 -8 25 -36 30 -36 7 0 -8 -9 -20
-20 -27 -16 -11 -17 -14 -5 -28 14 -16 21 -52 30 -168 l6 -72 -35 17 c-20 9
-36 23 -36 30 0 7 -8 13 -17 13 -21 0 -53 29 -53 48 0 10 -7 12 -24 8 -17 -4
-34 2 -61 24 -20 16 -46 32 -57 36 -11 3 -40 20 -65 37 -25 18 -50 35 -57 38
-6 3 -21 11 -33 17 -13 7 -30 12 -38 12 -8 0 -15 5 -15 11 0 5 -13 15 -30 20
-16 6 -30 15 -30 20 0 5 -8 9 -18 9 -11 0 -39 13 -63 30 -24 16 -50 30 -58 30
-14 0 -37 10 -164 69 -37 17 -76 31 -86 31 -10 0 -24 7 -31 15 -7 8 -23 15
-36 15 -13 0 -44 5 -68 12 -47 12 -76 2 -76 -28 0 -15 118 -74 148 -74 20 0
38 -6 109 -36 17 -8 34 -14 37 -14 3 0 28 -13 54 -30 27 -16 56 -30 65 -30 16
0 79 -31 162 -81 28 -16 61 -34 75 -39 14 -6 36 -17 50 -26 14 -8 44 -24 68
-35 23 -11 42 -26 42 -34 0 -10 10 -15 29 -15 21 0 32 -6 36 -20 4 -12 21 -24
44 -30 21 -6 44 -16 50 -24 7 -8 23 -17 36 -20 14 -4 25 -12 25 -19 1 -6 23
-23 50 -36 54 -26 66 -43 46 -64 -8 -7 -17 -28 -21 -45 -4 -19 -13 -32 -21
-32 -11 0 -13 -6 -9 -19 4 -12 -3 -29 -19 -47 -24 -28 -25 -28 -44 -11 -14 13
-28 17 -42 12 -13 -4 -31 0 -45 9 -13 9 -45 16 -70 16 -25 0 -45 4 -45 10 0 5
-17 12 -37 15 -21 3 -51 10 -68 16 -63 22 -281 58 -318 52 -32 -5 -46 0 -92
31 -30 20 -55 40 -55 45 0 5 -20 21 -45 35 -25 15 -45 31 -45 36 0 12 -68 33
-85 26 -29 -11 -17 -46 20 -62 23 -9 35 -21 35 -34 0 -19 10 -24 37 -21 7 1
13 -7 13 -19 0 -24 -8 -25 -38 -4 -18 12 -29 13 -52 6 -15 -6 -31 -8 -33 -5
-9 8 -262 34 -382 39 -60 3 -144 6 -185 8 -99 5 -130 -1 -130 -24 0 -26 20
-31 170 -41 74 -5 155 -13 180 -18 25 -6 101 -10 170 -11 98 0 131 -3 148 -16
19 -13 28 -14 52 -4 25 10 32 10 46 -5 15 -15 16 -18 3 -26 -9 -4 -22 -27 -29
-51 -8 -24 -20 -47 -27 -51 -8 -5 -13 -27 -13 -53 0 -30 -5 -46 -15 -50 -10
-4 -15 -20 -15 -46 0 -21 -7 -52 -15 -67 -11 -23 -12 -42 -4 -97 5 -38 14 -79
20 -92 6 -16 6 -36 -2 -62 -10 -32 -9 -46 5 -79 9 -23 16 -52 16 -65 0 -12 9
-31 19 -40 18 -17 21 -30 36 -161 9 -77 14 -95 29 -95 9 0 16 -16 19 -47 2
-27 12 -68 22 -93 9 -25 17 -53 18 -62 1 -10 4 -18 7 -18 11 0 50 -86 50 -109
0 -11 4 -21 9 -21 5 0 19 -19 31 -42 12 -24 31 -51 41 -61 10 -10 19 -28 19
-41 0 -13 7 -29 15 -36 17 -14 20 -30 5 -30 -6 0 -15 10 -20 23 -5 12 -9 18
-9 13 -1 -11 -61 53 -61 64 0 4 -11 5 -25 2 -18 -3 -25 0 -25 12 0 9 -4 16 -9
16 -5 0 -23 13 -39 29 -17 15 -54 45 -81 67 -46 35 -51 42 -51 79 -1 37 -2 39
-15 21 -14 -19 -15 -19 -37 0 -37 31 -186 182 -298 303 -58 63 -133 142 -167
176 -69 69 -79 95 -36 95 l27 0 -21 22 c-24 23 -33 21 -38 -9 -3 -20 -26 -19
-38 3 -4 8 -15 14 -23 14 -8 0 -23 13 -32 30 -9 16 -21 30 -26 30 -9 0 -94 65
-111 85 -5 7 -39 26 -75 44 -36 18 -75 42 -87 53 -15 14 -31 19 -53 16 -18 -3
-35 1 -41 9 -9 10 -7 13 6 13 22 0 44 28 45 56 0 29 -82 92 -137 106 -24 6
-43 14 -43 18 0 4 -28 11 -62 14 -35 4 -69 12 -76 18 -7 7 -35 8 -70 5 -125
-14 -195 -26 -205 -36 -6 -6 -17 -11 -24 -11 -7 0 -32 -14 -55 -30 -23 -17
-45 -27 -50 -22 -8 8 1 66 23 138 5 18 11 55 13 84 2 29 8 55 14 59 5 3 12 24
16 45 4 22 14 49 22 60 8 11 14 35 14 54 0 20 6 35 15 38 8 4 15 10 15 16 0 5
11 24 25 42 14 18 25 38 25 44 0 6 12 25 28 41 15 16 45 51 67 77 59 70 76 86
120 119 22 16 42 32 45 35 5 5 43 31 85 57 11 7 28 16 38 19 9 3 17 10 17 15
0 5 7 9 15 9 9 0 18 7 21 15 4 8 12 15 20 15 8 0 19 9 26 20 7 11 23 20 36 20
12 0 25 7 29 15 3 9 23 25 45 36 42 21 67 43 158 133 93 92 115 124 125 178 4
21 11 36 15 33 15 -9 21 13 21 77 1 60 -1 64 -36 97 -36 32 -40 33 -100 28
-46 -3 -70 -10 -86 -26 -14 -13 -25 -17 -27 -11 -5 14 27 50 43 50 7 0 18 7
25 15 8 10 31 15 72 15 61 0 65 3 70 50 2 20 -2 26 -22 28 -37 5 -47 20 -24
36 18 14 18 15 1 22 -10 3 -23 2 -30 -5 -19 -19 -57 -14 -57 9 0 27 -42 27
-95 0 -47 -24 -73 -27 -56 -7 6 8 8 17 5 20 -4 3 7 9 22 12 36 8 41 10 84 37
49 30 97 39 111 22 12 -15 5 -19 -35 -26 -11 -2 -21 -9 -24 -17 -4 -12 7 -13
62 -7 50 5 66 4 66 -6 0 -7 6 -4 12 6 15 26 16 88 2 101 -15 13 -26 96 -15
114 13 20 21 0 23 -58 1 -28 6 -51 10 -51 4 0 8 -7 8 -15 0 -8 9 -23 20 -32
11 -10 20 -23 20 -29 0 -8 22 -11 65 -10 48 1 68 -3 75 -14 5 -8 7 -17 4 -21
-4 -8 20 -19 42 -19 24 0 15 19 -16 35 -37 19 -38 38 -4 54 23 10 26 9 31 -9
3 -11 9 -20 14 -20 15 0 24 33 11 38 -20 6 -13 29 21 65 17 19 38 42 45 51 7
9 24 16 37 16 17 0 25 5 25 18 -4 124 -21 282 -34 307 -9 17 -16 49 -16 73 0
25 -6 50 -15 58 -8 9 -15 24 -15 35 0 11 -7 22 -15 25 -8 4 -15 18 -15 33 0
15 -7 36 -15 47 -8 10 -15 26 -15 35 0 9 -9 26 -20 39 -11 13 -20 31 -20 40 0
19 -29 82 -41 90 -5 3 -20 27 -34 54 -63 118 -89 162 -101 169 -8 4 -14 17
-14 28 0 11 -4 17 -10 14 -5 -3 -10 -2 -10 4 0 6 -19 30 -42 55 -70 73 -122
134 -127 148 -5 15 -27 38 -36 38 -10 0 -85 80 -85 91 0 4 -6 6 -13 3 -7 -2
-39 20 -72 51 -33 30 -75 67 -94 82 -18 16 -47 43 -64 61 -17 17 -37 32 -46
32 -21 0 -81 42 -81 58 0 6 -9 12 -20 12 -12 0 -32 11 -45 25 -14 16 -26 22
-30 15 -9 -14 -28 -1 -21 15 3 9 -2 11 -15 8 -12 -4 -32 3 -49 16 -16 11 -36
21 -44 21 -8 0 -19 6 -23 13 -13 20 -47 35 -97 42 -48 8 -61 23 -26 32 11 3
20 9 20 14 0 13 -34 11 -47 -2 -13 -13 -88 -8 -88 6 0 6 20 12 45 15 41 5 43
6 18 13 -15 4 -45 5 -66 1 -27 -4 -49 -1 -70 10 -17 9 -48 16 -70 16 -38 0
-92 19 -92 33 0 14 71 7 76 -8z m78 -114 c3 -4 26 -14 51 -21 25 -7 48 -17 51
-21 3 -5 14 -9 25 -9 11 0 37 -9 57 -20 20 -10 44 -21 52 -24 8 -3 22 -10 30
-15 8 -5 38 -19 65 -31 28 -12 64 -29 80 -37 32 -17 230 -147 282 -185 17 -13
41 -30 53 -38 65 -44 277 -252 363 -355 115 -141 230 -329 305 -505 8 -19 21
-48 28 -63 8 -16 14 -35 14 -44 0 -8 7 -29 15 -46 36 -78 61 -326 35 -342 -5
-3 -10 -21 -10 -39 0 -48 -55 -128 -105 -155 -48 -26 -67 -21 -95 24 -23 38
-25 82 -5 109 8 11 15 32 15 47 0 16 11 45 25 65 29 42 32 74 9 74 -19 0 -98
-57 -135 -97 -40 -43 -67 -94 -82 -154 -13 -50 -17 -55 -48 -61 -46 -9 -111
-33 -149 -56 -48 -30 -160 -132 -160 -146 0 -7 -11 -34 -24 -59 -24 -45 -25
-87 -2 -87 6 0 22 10 36 23 14 12 43 31 65 41 22 10 59 27 82 38 48 22 78 15
46 -11 -33 -28 -72 -87 -89 -137 -17 -52 -14 -131 8 -179 13 -29 29 -21 55 29
9 17 22 35 29 39 8 4 14 17 14 27 0 18 10 24 31 22 4 -1 15 8 24 18 25 27 70
26 89 -2 20 -29 20 -44 -4 -93 -11 -22 -19 -46 -20 -52 0 -7 -4 -13 -8 -13 -5
0 -23 -21 -41 -46 -18 -25 -42 -54 -54 -65 -26 -24 -212 -149 -222 -149 -5 0
-22 -10 -39 -23 -17 -12 -44 -28 -59 -35 -15 -6 -82 -53 -148 -103 l-120 -91
-27 17 c-70 44 -191 193 -280 345 -28 48 -111 264 -123 320 -43 203 -50 276
-46 455 4 170 23 347 47 425 5 19 10 53 10 74 0 22 6 62 14 90 8 28 21 85 29
126 9 41 23 111 32 155 9 44 25 117 37 162 37 150 12 500 -42 595 -6 10 -10
29 -10 43 0 14 -9 42 -20 62 -11 21 -20 45 -20 53 0 9 -15 42 -34 73 -19 30
-31 58 -28 61 8 9 40 7 46 -3z m3836 -158 c-1 -10 -8 -36 -16 -58 -13 -35 -29
-166 -38 -303 -3 -48 -17 -63 -56 -57 -14 2 -42 7 -62 10 -21 3 -38 9 -38 13
0 15 22 89 35 117 7 17 21 50 31 75 10 25 24 51 31 58 7 7 13 18 13 25 0 6 17
39 38 74 36 61 62 81 62 46z m-922 -330 c-10 -2 -28 -2 -40 0 -13 2 -5 4 17 4
22 1 32 -1 23 -4z m-99 -34 c-18 -11 -39 -11 -39 0 0 11 31 20 44 13 4 -2 2
-8 -5 -13z m-49 -17 c0 -15 -11 -21 -27 -15 -12 5 -12 7 -1 14 17 11 28 11 28
1z m163 -31 c-5 -21 -78 -51 -122 -51 -25 1 -25 1 -6 12 11 6 23 17 28 24 4 7
23 16 42 20 20 3 38 10 41 15 9 16 22 0 17 -20z m122 -1 c-3 -5 -12 -10 -18
-10 -7 0 -6 4 3 10 19 12 23 12 15 0z m-370 -10 c-3 -5 -17 -10 -31 -10 -14 0
-22 4 -19 10 3 6 17 10 31 10 14 0 22 -4 19 -10z m1103 -132 c7 -6 12 -34 12
-69 0 -53 -2 -59 -20 -59 -12 0 -37 8 -58 19 -20 10 -51 22 -69 25 -46 10 -58
29 -43 65 7 18 21 31 33 33 39 5 132 -4 145 -14z m-323 -6 c-3 -3 -11 0 -18 7
-9 10 -8 11 6 5 10 -3 15 -9 12 -12z m565 -1028 c16 -15 30 -34 30 -42 0 -9 6
-23 13 -31 33 -39 74 -226 83 -381 5 -89 20 -112 29 -46 9 60 33 91 63 82 47
-15 79 -197 51 -286 -6 -19 -15 -93 -19 -165 -20 -311 -31 -442 -41 -470 -6
-16 -13 -75 -16 -130 -3 -55 -9 -104 -13 -110 -4 -5 -13 -43 -19 -84 -6 -40
-16 -82 -21 -92 -6 -10 -10 -26 -10 -37 0 -38 -41 -149 -65 -174 -14 -15 -25
-29 -25 -31 0 -2 46 6 103 17 75 15 141 20 252 20 159 0 188 -7 243 -57 26
-24 52 -103 52 -158 0 -97 -86 -293 -174 -397 -54 -64 -159 -152 -181 -152 -6
0 -27 -8 -46 -17 -19 -10 -65 -19 -104 -21 -86 -5 -139 14 -157 55 -7 15 -13
29 -14 31 -3 5 -64 -25 -129 -63 -191 -112 -341 -139 -455 -83 -105 52 -163
113 -315 333 -20 28 -38 57 -41 65 -6 13 -106 155 -144 205 -8 10 -37 40 -63
65 -53 52 -54 71 -5 86 22 6 35 18 41 39 6 17 19 43 30 59 12 17 28 53 37 80
21 63 44 70 88 27 17 -17 37 -31 45 -31 8 0 22 -11 31 -25 9 -14 34 -34 55
-45 22 -11 41 -25 43 -31 2 -7 11 -13 20 -15 14 -2 15 2 6 22 -6 13 -17 24
-25 24 -7 0 -13 6 -13 13 -1 10 -62 61 -130 107 -51 34 -70 52 -70 66 0 22 27
22 115 -3 33 -9 69 -23 80 -30 26 -17 45 -17 45 2 0 8 -7 15 -15 15 -8 0 -15
5 -15 10 0 6 -11 15 -25 20 -30 11 -38 29 -59 130 -52 251 -73 387 -91 590
-19 213 -19 339 1 492 22 172 39 242 81 327 41 82 88 121 146 121 131 0 334
-350 398 -683 5 -28 13 -54 19 -57 12 -7 25 -320 16 -393 -8 -65 -28 -76 -45
-25 -31 89 -88 130 -148 107 -35 -13 -47 -29 -89 -118 -30 -62 -36 -90 -45
-185 -14 -158 -17 -249 -8 -261 4 -6 9 -37 11 -70 l3 -60 -62 0 c-35 0 -64 -3
-64 -7 -7 -31 -1 -33 111 -40 137 -8 132 -7 195 -24 143 -37 213 -61 235 -80
8 -7 27 -15 41 -19 14 -3 38 -16 54 -29 27 -22 28 -23 9 -44 -10 -12 -24 -22
-31 -22 -21 0 -53 -61 -53 -100 0 -52 18 -70 116 -120 51 -26 109 -65 138 -93
27 -26 52 -46 55 -45 32 15 187 128 227 165 53 50 74 80 74 108 0 32 -53 86
-109 112 -49 22 -73 26 -186 31 -130 5 -130 5 -171 38 -22 19 -63 43 -90 55
-52 22 -108 47 -136 60 -9 4 -40 11 -68 15 -33 4 -54 12 -58 23 -3 8 11 63 31
121 54 156 87 277 87 320 0 21 5 51 10 65 6 15 7 32 3 38 -4 6 -8 34 -8 62 -1
27 -5 69 -10 92 -5 30 -4 47 5 58 14 17 6 189 -12 260 -5 22 -14 78 -19 125
-5 47 -13 86 -19 88 -5 2 -10 20 -10 41 0 20 -7 47 -16 60 -20 28 -14 112 10
159 22 42 47 33 89 -32 40 -61 63 -114 81 -181 25 -92 30 -21 17 225 -14 272
-9 325 42 388 15 19 61 8 97 -24z m536 -451 c47 -51 67 -104 104 -273 36 -166
21 -535 -26 -634 -22 -45 -30 -45 -38 -1 -8 39 -47 75 -83 75 -51 0 -135 -114
-183 -250 -22 -62 -41 -173 -48 -280 l-7 -104 -42 -12 c-32 -9 -45 -10 -57 -1
-15 11 -15 18 0 82 32 142 46 213 64 335 39 249 50 346 60 524 11 193 32 343
56 389 7 16 14 37 14 47 0 23 39 83 72 110 34 29 84 26 114 -7z m271 -155 c-3
-7 -5 -2 -5 12 0 14 2 19 5 13 2 -7 2 -19 0 -25z m-1232 -618 c50 -33 96 -140
60 -140 -8 0 -15 4 -15 8 0 5 -6 16 -13 26 -12 17 -15 17 -55 -4 -23 -12 -42
-29 -42 -39 0 -9 -7 -25 -15 -35 -8 -11 -15 -26 -15 -35 0 -8 -7 -22 -16 -32
-19 -21 -34 -192 -22 -264 5 -27 6 -61 3 -74 -10 -42 -20 -11 -17 55 2 36 -1
64 -6 64 -6 0 -6 15 -1 41 5 23 7 86 4 140 -5 86 -3 105 15 143 11 25 20 48
20 51 0 11 71 115 78 115 4 0 20 -9 37 -20z m954 -244 c0 -65 -3 -83 -9 -63
-7 24 -45 66 -60 67 -13 0 -88 -77 -93 -95 -4 -16 -5 -15 -6 6 0 15 6 32 14
39 8 7 15 21 15 31 0 28 34 86 71 121 l32 31 19 -22 c15 -19 18 -40 17 -115z
m-1132 -218 c-3 -8 -6 -5 -6 6 -1 11 2 17 5 13 3 -3 4 -12 1 -19z m-1351 -197
c31 -9 57 -27 98 -67 51 -51 166 -133 245 -174 78 -41 88 -50 110 -95 23 -48
23 -57 26 -350 3 -331 14 -424 75 -596 45 -131 68 -169 165 -276 90 -99 234
-149 332 -116 93 32 141 86 229 265 91 183 236 357 315 378 69 18 220 95 263
135 41 36 62 38 96 10 33 -27 96 -49 149 -50 31 -1 59 -3 64 -4 14 -2 7 -37
-17 -71 -13 -19 -27 -46 -31 -60 -4 -14 -20 -44 -36 -68 -16 -24 -29 -46 -29
-49 0 -8 -64 -89 -109 -136 -34 -36 -221 -167 -239 -167 -5 0 -19 -11 -32 -25
-13 -14 -27 -25 -32 -25 -16 0 -122 -75 -153 -108 -43 -44 -69 -36 -62 20 3
21 1 36 -4 32 -5 -3 -9 -12 -9 -20 0 -8 -6 -14 -14 -14 -8 0 -17 -15 -20 -34
-4 -19 -10 -36 -14 -38 -4 -2 -21 -25 -37 -53 -43 -74 -138 -168 -208 -206
-59 -31 -68 -33 -167 -34 -89 0 -115 4 -168 25 -73 29 -180 114 -266 210 -32
36 -62 66 -67 68 -17 7 -9 -28 11 -45 23 -20 26 -51 6 -59 -8 -3 -32 6 -54 20
-41 25 -222 203 -222 217 0 4 -20 36 -44 71 -72 103 -167 299 -200 413 -10 33
-22 74 -28 90 -6 17 -14 53 -18 80 -22 132 -41 208 -59 233 -17 24 -18 35 -9
111 8 79 8 85 -13 107 -20 21 -21 29 -14 104 4 45 16 105 27 133 11 29 22 63
25 77 4 14 14 36 24 49 11 13 19 32 19 43 0 20 36 57 55 58 6 0 24 -4 41 -9z
m278 -80 c23 -22 56 -28 56 -11 0 18 49 23 73 7 12 -8 47 -18 77 -21 59 -8
161 -46 157 -59 -1 -4 -36 -10 -77 -12 -41 -2 -103 -7 -138 -10 -50 -4 -64 -2
-68 10 -4 8 -12 15 -19 15 -6 0 -31 14 -53 30 -23 17 -49 30 -57 30 -9 0 -18
7 -21 15 -3 8 -14 17 -25 20 -11 4 -17 10 -14 14 8 14 85 -6 109 -28z m406
-86 c0 -8 -4 -15 -10 -15 -5 0 -10 7 -10 15 0 8 5 15 10 15 6 0 10 -7 10 -15z
m1550 -53 c27 -13 36 -24 38 -47 5 -56 -78 -83 -205 -66 -49 6 -79 15 -93 29
-21 19 -21 22 -7 43 39 55 190 78 267 41z m664 -68 c29 -63 32 -84 14 -85 -8
0 -7 -3 2 -6 25 -10 37 -27 44 -66 8 -41 3 -43 -34 -22 -16 9 -55 14 -105 15
-119 1 -127 4 -121 54 2 22 5 49 5 58 1 23 48 68 70 68 10 0 24 6 31 14 6 8
21 17 33 19 12 2 25 5 29 6 3 0 18 -24 32 -55z m-4200 -80 c9 -3 13 -10 10
-15 -6 -11 -65 -12 -90 -2 -16 6 -16 7 2 14 24 10 58 11 78 3z m4182 -176 c3
-4 16 -8 29 -8 49 0 55 -8 55 -75 0 -43 -5 -68 -15 -79 -8 -8 -15 -28 -15 -44
0 -41 -8 -44 -37 -16 -30 30 -41 30 -55 -1 -6 -14 -19 -25 -29 -25 -10 0 -21
-9 -24 -20 -3 -11 -12 -20 -19 -20 -7 0 -24 -10 -37 -21 -13 -12 -43 -30 -66
-41 -24 -10 -43 -23 -43 -28 0 -6 -7 -10 -15 -10 -9 0 -18 -7 -21 -15 -8 -19
-24 -20 -24 -2 0 13 21 43 55 78 15 15 14 18 -11 38 -34 27 -38 26 -54 -4 -7
-14 -17 -25 -22 -25 -4 0 -8 -5 -8 -10 0 -12 -106 -120 -116 -120 -4 0 -16 -9
-28 -20 -12 -11 -37 -35 -57 -53 -101 -91 -119 -102 -119 -72 0 8 -5 15 -11
15 -7 0 -9 -11 -5 -30 4 -24 2 -30 -12 -30 -10 0 -25 -9 -35 -20 -9 -11 -24
-20 -32 -20 -13 0 -14 4 -4 22 7 13 18 29 26 36 7 7 13 19 13 26 0 8 7 19 15
26 8 7 15 21 15 31 0 11 9 28 20 39 11 11 20 27 20 36 0 36 33 71 84 89 28 10
61 27 74 39 14 13 33 20 49 18 21 -3 24 -1 18 17 -4 12 -2 21 4 21 12 0 81 70
81 81 0 4 6 14 13 21 26 28 87 124 87 138 0 8 4 21 9 28 13 21 51 -52 58 -110
7 -60 23 -63 23 -4 0 28 -9 62 -24 91 l-25 46 105 -2 c58 -1 107 -6 110 -11z"/>
<path d="M4322 5918 c5 -15 37 -18 41 -3 1 6 -9 12 -22 13 -16 3 -22 -1 -19
-10z"/>
<path d="M4420 5890 c0 -5 5 -10 10 -10 6 0 10 5 10 10 0 6 -4 10 -10 10 -5 0
-10 -4 -10 -10z"/>
<path d="M4256 5874 c-23 -22 -20 -34 9 -34 18 0 25 5 25 19 0 27 -15 34 -34
15z"/>
<path d="M4320 5793 c0 -31 24 -29 38 2 11 23 10 25 -13 23 -19 -2 -25 -8 -25
-25z"/>
<path d="M4168 5783 c7 -3 16 -2 19 1 4 3 -2 6 -13 5 -11 0 -14 -3 -6 -6z"/>
<path d="M4111 5744 c0 -11 3 -14 6 -6 3 7 2 16 -1 19 -3 4 -6 -2 -5 -13z"/>
<path d="M4017 5703 c-14 -13 -6 -23 18 -23 18 0 23 4 19 15 -6 16 -26 20 -37
8z"/>
<path d="M4103 5614 c-4 -12 -8 -13 -14 -3 -5 9 -10 5 -14 -13 -11 -42 -4 -57
23 -47 17 6 22 16 22 44 0 37 -7 45 -17 19z"/>
<path d="M4196 5621 c-8 -12 3 -41 15 -41 12 0 12 37 0 45 -5 3 -12 1 -15 -4z"/>
<path d="M3860 5516 c0 -8 -9 -18 -20 -21 -11 -3 -20 -13 -20 -21 0 -20 12
-18 38 6 24 23 27 35 12 45 -5 3 -10 -1 -10 -9z"/>
<path d="M4135 5520 c-9 -14 4 -52 16 -45 12 8 12 55 0 55 -6 0 -13 -5 -16
-10z"/>
<path d="M3840 5280 c0 -6 28 -9 68 -9 66 1 66 2 22 10 -63 11 -90 11 -90 -1z"/>
<path d="M4030 5280 l-35 -7 43 -2 c23 0 42 4 42 9 0 6 -3 9 -7 9 -5 -1 -24
-5 -43 -9z"/>
<path d="M3678 5243 c6 -2 18 -2 25 0 6 3 1 5 -13 5 -14 0 -19 -2 -12 -5z"/>
<path d="M3800 5240 c0 -5 9 -10 20 -10 11 0 20 5 20 10 0 6 -9 10 -20 10 -11
0 -20 -4 -20 -10z"/>
<path d="M845 5791 c-15 -6 -11 -9 20 -14 22 -4 44 -2 49 3 7 7 4 10 -6 10 -9
0 -22 2 -30 4 -7 3 -22 1 -33 -3z"/>
<path d="M1090 5660 c19 -13 30 -13 30 0 0 6 -10 10 -22 10 -19 0 -20 -2 -8
-10z"/>
<path d="M1154 5629 c-3 -6 -2 -15 4 -21 11 -11 52 6 52 22 0 14 -47 13 -56
-1z"/>
<path d="M1258 5593 c7 -3 16 -2 19 1 4 3 -2 6 -13 5 -11 0 -14 -3 -6 -6z"/>
<path d="M1517 5536 c-16 -13 -15 -14 10 -19 33 -6 38 -3 30 18 -8 18 -16 19
-40 1z"/>
<path d="M1354 5485 c3 -9 6 -19 6 -21 0 -2 6 -4 14 -4 26 0 26 17 -1 29 -22
10 -25 10 -19 -4z"/>
<path d="M1603 5480 c-1 -15 4 -20 23 -20 17 0 24 5 24 20 0 14 -7 20 -23 20
-16 0 -23 -6 -24 -20z"/>
<path d="M1705 5439 c-4 -6 -4 -13 -1 -16 8 -8 36 5 36 17 0 13 -27 13 -35 -1z"/>
<path d="M1475 5370 c-3 -5 1 -10 9 -10 9 0 16 5 16 10 0 6 -4 10 -9 10 -6 0
-13 -4 -16 -10z"/>
<path d="M1556 5371 c-3 -5 5 -8 19 -7 14 0 25 4 25 9 0 10 -38 9 -44 -2z"/>
<path d="M1510 5330 c0 -24 25 -27 34 -4 9 23 8 24 -14 24 -13 0 -20 -7 -20
-20z"/>
<path d="M1840 5341 c0 -6 6 -11 13 -11 6 0 26 -17 44 -37 25 -30 34 -35 44
-26 10 10 9 14 -4 19 -9 3 -17 12 -17 20 0 8 -7 14 -15 14 -9 0 -27 7 -40 16
-15 10 -25 12 -25 5z"/>
<path d="M1643 5287 l-42 -12 26 -12 c14 -7 30 -10 34 -7 8 5 33 45 27 43 -2
-1 -22 -6 -45 -12z"/>
<path d="M1796 5284 c-4 -10 -2 -22 3 -27 7 -7 13 -5 17 7 4 10 2 22 -3 27 -7
7 -13 5 -17 -7z"/>
<path d="M1840 5221 c0 -15 29 -33 45 -27 22 8 6 36 -21 36 -13 0 -24 -4 -24
-9z"/>
<path d="M1900 5181 c0 -11 26 -22 34 -14 3 3 3 10 0 14 -7 12 -34 11 -34 0z"/>
<path d="M1674 5149 c8 -40 39 -70 45 -43 1 9 -4 21 -13 26 -9 5 -16 15 -16
23 0 8 -5 17 -12 21 -8 5 -9 -2 -4 -27z"/>
<path d="M2092 5130 c8 -12 23 -20 38 -19 15 0 19 3 10 6 -8 3 -19 12 -23 19
-4 8 -15 14 -23 14 -12 0 -12 -3 -2 -20z"/>
<path d="M1770 5106 c0 -8 5 -18 10 -21 6 -3 10 3 10 14 0 12 -4 21 -10 21 -5
0 -10 -6 -10 -14z"/>
<path d="M2050 5050 c0 -5 5 -10 10 -10 6 0 10 5 10 10 0 6 -4 10 -10 10 -5 0
-10 -4 -10 -10z"/>
<path d="M2170 5045 c-14 -16 -10 -18 14 -9 9 3 16 10 16 15 0 14 -16 11 -30
-6z"/>
<path d="M3218 5003 c-36 -9 -16 -23 34 -23 32 0 48 4 43 9 -13 13 -56 20 -77
14z"/>
<path d="M2274 4992 c-14 -10 -26 -42 -14 -42 5 0 16 7 24 16 26 25 18 45 -10
26z"/>
<path d="M2302 4961 c4 -13 18 -16 19 -4 0 4 -5 9 -11 12 -7 2 -11 -2 -8 -8z"/>
<path d="M2793 4954 c-8 -21 1 -26 22 -11 16 13 16 14 1 20 -10 4 -19 1 -23
-9z"/>
<path d="M3547 4933 c-14 -13 -6 -23 17 -23 30 0 42 15 20 24 -20 8 -29 8 -37
-1z"/>
<path d="M2160 4920 c0 -5 4 -10 9 -10 6 0 13 5 16 10 3 6 -1 10 -9 10 -9 0
-16 -4 -16 -10z"/>
<path d="M2348 4906 c-4 -19 -1 -23 18 -23 22 0 22 1 7 23 -8 13 -17 24 -18
24 -1 0 -5 -11 -7 -24z"/>
<path d="M3790 4920 c0 -5 11 -10 25 -10 14 0 25 5 25 10 0 6 -11 10 -25 10
-14 0 -25 -4 -25 -10z"/>
<path d="M1956 4895 c-4 -10 1 -15 14 -15 13 0 18 5 14 15 -4 8 -10 15 -14 15
-4 0 -10 -7 -14 -15z"/>
<path d="M3270 4895 c0 -8 7 -15 15 -15 8 0 15 7 15 15 0 8 -7 15 -15 15 -8 0
-15 -7 -15 -15z"/>
<path d="M2978 4883 c7 -3 16 -2 19 1 4 3 -2 6 -13 5 -11 0 -14 -3 -6 -6z"/>
<path d="M1995 4848 c10 -30 37 -51 47 -35 9 15 -14 51 -37 55 -14 3 -16 -1
-10 -20z"/>
<path d="M3060 4850 c-15 -28 -6 -37 29 -32 27 4 47 32 33 46 -13 14 -52 4
-62 -14z"/>
<path d="M3117 4779 c-69 -70 -87 -93 -82 -109 7 -23 -2 -60 -15 -60 -6 0 -12
11 -16 25 -3 14 -10 25 -14 25 -16 0 -18 -28 -4 -55 18 -35 18 -54 -2 -76 -9
-10 -18 -37 -21 -61 -3 -24 -10 -46 -16 -49 -11 -7 -12 -289 -1 -348 14 -75
52 -116 61 -65 3 16 5 106 12 383 1 43 4 52 16 47 12 -4 15 3 15 29 0 51 40
121 108 191 7 8 11 18 8 23 -10 15 12 61 29 61 8 0 15 6 15 14 0 7 14 27 31
45 37 40 35 65 -6 68 -25 1 -44 -13 -118 -88z"/>
<path d="M3313 4855 c-3 -9 -3 -18 -1 -21 9 -9 59 16 53 26 -10 16 -45 12 -52
-5z"/>
<path d="M3585 4860 c-14 -6 -4 -9 37 -9 31 -1 60 4 63 9 8 12 -71 12 -100 0z"/>
<path d="M3815 4860 c-3 -5 1 -10 9 -10 9 0 16 5 16 10 0 6 -4 10 -9 10 -6 0
-13 -4 -16 -10z"/>
<path d="M1927 4810 c3 -11 16 -31 30 -46 13 -14 27 -39 30 -55 6 -31 20 -38
29 -14 6 15 -25 74 -59 113 -25 27 -37 28 -30 2z"/>
<path d="M3752 4818 c-18 -18 -15 -28 8 -28 21 0 25 7 12 27 -6 10 -11 10 -20
1z"/>
<path d="M3545 4803 c-108 -61 -122 -73 -146 -125 -13 -29 -31 -60 -40 -69
-10 -10 -17 -34 -17 -57 0 -23 -6 -50 -11 -61 -16 -30 -14 -176 4 -218 8 -19
15 -53 15 -74 0 -22 4 -39 9 -39 5 0 12 -15 15 -34 4 -18 15 -41 26 -51 11
-10 20 -23 20 -28 0 -6 12 -25 26 -44 18 -24 33 -33 47 -31 23 3 31 36 40 156
2 23 9 48 15 54 7 7 12 24 12 39 0 15 7 32 15 39 8 7 15 18 15 26 0 7 10 22
21 33 12 11 27 30 33 43 9 18 23 25 66 30 56 7 166 -7 176 -23 3 -5 13 -9 23
-9 10 0 28 -9 41 -20 13 -11 29 -20 36 -20 7 0 24 -13 37 -30 14 -16 33 -30
41 -30 20 0 61 -39 70 -66 3 -12 18 -26 31 -32 14 -6 25 -16 25 -22 0 -5 8
-10 18 -10 11 0 21 13 30 41 13 43 10 59 -15 59 -16 0 -15 9 3 97 5 29 4 31
-15 26 -12 -3 -21 -10 -21 -15 0 -5 -4 -6 -10 -3 -5 3 -10 14 -10 25 0 10 -7
21 -16 24 -8 3 -13 10 -10 15 3 5 -3 11 -14 14 -12 3 -20 14 -20 26 0 25 -207
231 -232 231 -10 0 -18 4 -18 10 0 5 -30 26 -67 47 -38 20 -74 43 -81 50 -7 7
-31 13 -51 13 -22 0 -44 6 -51 15 -16 19 -28 19 -65 -2z"/>
<path d="M3400 4795 c-6 -8 -21 -17 -31 -20 -24 -8 -74 -53 -67 -61 9 -8 82
34 113 66 21 22 24 30 13 30 -9 0 -21 -7 -28 -15z"/>
<path d="M4087 4744 c-4 -4 -7 -11 -7 -16 0 -13 50 -6 53 7 2 12 -36 19 -46 9z"/>
<path d="M2623 4723 c-22 -8 -14 -32 13 -39 36 -9 51 9 22 28 -13 8 -29 13
-35 11z"/>
<path d="M3223 4717 c-7 -11 17 -39 30 -34 6 2 11 13 12 24 1 15 -4 21 -17 20
-11 -1 -22 -5 -25 -10z"/>
<path d="M4233 4713 c-25 -10 -12 -23 22 -23 36 0 47 13 19 24 -18 7 -23 7
-41 -1z"/>
<path d="M2910 4692 c-29 -5 -40 -18 -40 -49 0 -13 -4 -23 -8 -23 -4 0 -13
-20 -20 -45 -7 -25 -16 -45 -22 -45 -13 0 -13 -210 0 -246 10 -26 11 -26 30
-9 11 10 23 15 28 11 4 -4 7 -50 7 -101 0 -51 3 -96 6 -99 12 -12 19 227 7
241 -17 21 -2 213 18 228 10 7 16 26 16 51 0 21 4 44 10 51 15 18 -4 39 -32
35z"/>
<path d="M2560 4666 c0 -9 7 -16 16 -16 9 0 14 5 12 12 -6 18 -28 21 -28 4z"/>
<path d="M2680 4666 c0 -22 17 -28 40 -16 29 16 25 30 -10 30 -19 0 -30 -5
-30 -14z"/>
<path d="M4465 4669 c-10 -15 3 -25 16 -12 7 7 7 13 1 17 -6 3 -14 1 -17 -5z"/>
<path d="M2640 4630 c0 -5 5 -10 10 -10 6 0 10 5 10 10 0 6 -4 10 -10 10 -5 0
-10 -4 -10 -10z"/>
<path d="M3275 4600 c-3 -5 -1 -18 4 -27 9 -16 10 -14 11 10 0 28 -5 34 -15
17z"/>
<path d="M4610 4539 c0 -11 5 -17 10 -14 6 3 10 13 10 21 0 8 -4 14 -10 14 -5
0 -10 -9 -10 -21z"/>
<path d="M3267 4483 c-2 -10 -8 -26 -12 -35 -11 -27 18 -22 31 5 11 24 8 47
-6 47 -4 0 -10 -8 -13 -17z"/>
<path d="M3061 4414 c0 -11 3 -14 6 -6 3 7 2 16 -1 19 -3 4 -6 -2 -5 -13z"/>
<path d="M2210 4371 c0 -23 4 -29 16 -24 17 6 15 44 -3 51 -9 2 -13 -7 -13
-27z"/>
<path d="M4292 4384 c4 -21 22 -23 26 -1 2 10 -3 17 -13 17 -10 0 -15 -6 -13
-16z"/>
<path d="M4260 4323 c0 -10 5 -25 10 -33 7 -11 10 -7 10 18 0 17 -4 32 -10 32
-5 0 -10 -8 -10 -17z"/>
<path d="M2175 4301 c-3 -11 1 -34 9 -53 l14 -33 1 53 c1 52 -12 70 -24 33z"/>
<path d="M3880 4285 c0 -12 8 -16 33 -13 17 2 32 8 32 13 0 6 -15 11 -32 13
-25 3 -33 -1 -33 -13z"/>
<path d="M4332 4287 c-9 -11 -10 -17 -2 -22 15 -9 23 -1 18 21 -3 15 -4 16
-16 1z"/>
<path d="M2258 4270 c-3 -8 -9 -33 -12 -55 -3 -22 -13 -46 -23 -52 -16 -12
-15 -13 3 -13 38 0 45 14 42 76 -2 32 -6 52 -10 44z"/>
<path d="M3760 4233 c0 -13 5 -23 10 -23 13 0 13 11 0 30 -8 12 -10 11 -10 -7z"/>
<path d="M4294 4239 c-3 -6 -1 -16 5 -22 8 -8 11 -5 11 11 0 24 -5 28 -16 11z"/>
<path d="M4706 4188 c-6 -32 5 -55 21 -45 11 7 4 77 -7 77 -4 0 -10 -14 -14
-32z"/>
<path d="M3895 4191 c-3 -5 -1 -12 5 -16 14 -9 52 4 45 16 -8 12 -42 12 -50 0z"/>
<path d="M4996 4172 c-3 -3 -6 -12 -6 -19 0 -17 42 -14 47 3 4 12 -32 26 -41
16z"/>
<path d="M2860 4160 c-13 -8 -12 -10 3 -10 9 0 17 5 17 10 0 12 -1 12 -20 0z"/>
<path d="M4105 4150 c4 -6 11 -8 16 -5 14 9 11 15 -7 15 -8 0 -12 -5 -9 -10z"/>
<path d="M4390 4131 c0 -12 6 -21 16 -21 9 0 14 7 12 17 -5 25 -28 28 -28 4z"/>
<path d="M3595 4130 c-3 -5 1 -10 10 -10 9 0 13 5 10 10 -3 6 -8 10 -10 10 -2
0 -7 -4 -10 -10z"/>
<path d="M3062 4100 c0 -14 2 -19 5 -12 2 6 2 18 0 25 -3 6 -5 1 -5 -13z"/>
<path d="M3890 4091 c0 -11 26 -22 34 -14 3 3 3 10 0 14 -7 12 -34 11 -34 0z"/>
<path d="M4350 4076 c0 -8 5 -18 10 -21 6 -3 10 3 10 14 0 12 -4 21 -10 21 -5
0 -10 -6 -10 -14z"/>
<path d="M2217 4073 c-11 -10 -8 -46 4 -63 9 -13 10 -12 5 2 -3 10 -1 20 4 23
6 4 10 15 10 26 0 19 -11 25 -23 12z"/>
<path d="M3615 4060 c-17 -7 -15 -9 13 -9 17 -1 32 4 32 9 0 12 -17 12 -45 0z"/>
<path d="M4030 4060 c0 -5 9 -10 19 -10 11 0 23 -5 26 -10 8 -13 25 -3 25 16
0 9 -11 14 -35 14 -19 0 -35 -4 -35 -10z"/>
<path d="M4710 4040 c0 -18 4 -29 10 -25 6 3 10 15 10 25 0 10 -4 22 -10 25
-6 4 -10 -7 -10 -25z"/>
<path d="M3570 4039 c0 -11 5 -17 10 -14 6 3 10 13 10 21 0 8 -4 14 -10 14 -5
0 -10 -9 -10 -21z"/>
<path d="M3725 4019 c-22 -11 -43 -26 -48 -35 -6 -11 -20 -15 -45 -12 -21 2
-37 -1 -37 -7 0 -13 79 -9 83 5 2 5 8 8 13 5 13 -9 49 14 49 30 0 8 7 15 15
15 8 0 15 5 15 10 0 12 3 13 -45 -11z"/>
<path d="M3842 4029 c2 -6 8 -10 13 -10 5 0 11 4 13 10 2 6 -4 11 -13 11 -9 0
-15 -5 -13 -11z"/>
<path d="M3372 3987 c2 -15 8 -26 13 -25 12 3 8 29 -7 43 -6 7 -8 1 -6 -18z"/>
<path d="M4973 4004 c-12 -6 -7 -34 7 -34 4 0 10 9 13 20 5 20 2 22 -20 14z"/>
<path d="M4015 3970 c-8 -13 20 -24 41 -16 20 8 9 26 -16 26 -10 0 -22 -5 -25
-10z"/>
<path d="M3428 3917 c-6 -16 1 -37 13 -37 12 0 12 37 0 44 -5 3 -11 0 -13 -7z"/>
<path d="M3530 3916 c0 -8 5 -18 10 -21 6 -3 10 1 10 9 0 8 -4 18 -10 21 -5 3
-10 -1 -10 -9z"/>
<path d="M3330 3905 c0 -8 5 -15 10 -15 6 0 10 7 10 15 0 8 -4 15 -10 15 -5 0
-10 -7 -10 -15z"/>
<path d="M4081 3894 c0 -11 3 -14 6 -6 3 7 2 16 -1 19 -3 4 -6 -2 -5 -13z"/>
<path d="M5030 3900 c0 -5 7 -10 15 -10 8 0 15 5 15 10 0 6 -7 10 -15 10 -8 0
-15 -4 -15 -10z"/>
<path d="M3620 3881 c0 -22 16 -36 24 -22 8 12 -3 41 -15 41 -5 0 -9 -9 -9
-19z"/>
<path d="M4167 3884 c-14 -14 -6 -24 19 -24 16 0 24 5 22 13 -5 14 -31 21 -41
11z"/>
<path d="M4750 3870 c0 -5 12 -10 26 -10 14 0 23 4 19 10 -3 6 -15 10 -26 10
-10 0 -19 -4 -19 -10z"/>
<path d="M3589 3830 c-4 -25 -3 -30 6 -30 6 0 11 9 11 20 1 20 -15 29 -17 10z"/>
<path d="M4232 3828 c-14 -14 -16 -44 -3 -52 16 -10 35 23 25 45 -7 16 -12 17
-22 7z"/>
<path d="M4880 3800 c0 -5 5 -10 11 -10 5 0 7 5 4 10 -3 6 -8 10 -11 10 -2 0
-4 -4 -4 -10z"/>
<path d="M4178 3763 c7 -3 16 -2 19 1 4 3 -2 6 -13 5 -11 0 -14 -3 -6 -6z"/>
<path d="M4802 3744 c2 -9 13 -20 26 -25 18 -7 22 -5 22 10 0 18 -18 31 -42
31 -5 0 -8 -7 -6 -16z"/>
<path d="M5130 3715 c0 -14 5 -25 10 -25 6 0 10 11 10 25 0 14 -4 25 -10 25
-5 0 -10 -11 -10 -25z"/>
<path d="M4933 3723 c-18 -6 -16 -23 1 -23 17 0 30 16 19 23 -5 2 -14 2 -20 0z"/>
<path d="M5197 3700 c-3 -11 -1 -20 4 -20 5 0 9 9 9 20 0 11 -2 20 -4 20 -2 0
-6 -9 -9 -20z"/>
<path d="M1766 3659 c3 -37 6 -41 28 -33 22 8 20 16 -7 42 l-23 22 2 -31z"/>
<path d="M1830 3681 c0 -5 14 -14 30 -20 17 -5 30 -17 30 -25 0 -9 7 -16 15
-16 22 0 18 29 -7 51 -24 19 -68 26 -68 10z"/>
<path d="M5258 3616 c2 -19 11 -37 19 -41 22 -8 26 0 13 25 -9 16 -9 25 1 36
9 11 7 14 -13 14 -21 0 -24 -4 -20 -34z"/>
<path d="M1757 3500 c3 -11 12 -20 19 -20 8 0 14 9 14 20 0 13 -7 20 -19 20
-14 0 -18 -5 -14 -20z"/>
<path d="M5285 3450 c-9 -14 4 -52 16 -45 12 8 12 42 0 50 -5 3 -12 1 -16 -5z"/>
<path d="M1710 3099 c0 -30 13 -36 39 -20 18 12 8 37 -18 44 -18 4 -21 1 -21
-24z"/>
<path d="M1653 3026 c-13 -13 -23 -26 -23 -29 0 -11 49 7 55 21 10 27 -9 32
-32 8z"/>
<path d="M1560 2963 c-18 -7 -30 -24 -24 -35 7 -11 34 2 34 17 0 7 6 16 13 18
17 7 -5 7 -23 0z"/>
<path d="M1637 2914 c-10 -11 3 -24 24 -24 10 0 19 7 19 15 0 15 -31 21 -43 9z"/>
<path d="M3370 2890 c0 -5 5 -10 10 -10 6 0 10 5 10 10 0 6 -4 10 -10 10 -5 0
-10 -4 -10 -10z"/>
<path d="M1708 2873 c6 -2 18 -2 25 0 6 3 1 5 -13 5 -14 0 -19 -2 -12 -5z"/>
<path d="M2800 2850 c0 -5 5 -10 11 -10 5 0 7 5 4 10 -3 6 -8 10 -11 10 -2 0
-4 -4 -4 -10z"/>
<path d="M2598 2843 c7 -3 16 -2 19 1 4 3 -2 6 -13 5 -11 0 -14 -3 -6 -6z"/>
<path d="M2680 2815 c0 -11 11 -15 40 -15 29 0 40 4 40 15 0 11 -11 15 -40 15
-29 0 -40 -4 -40 -15z"/>
<path d="M2945 2810 c-3 -5 3 -11 14 -11 12 -1 26 -2 33 -3 6 -1 13 5 16 12 5
15 -54 17 -63 2z"/>
<path d="M2780 2781 c0 -6 5 -13 10 -16 14 -9 52 4 45 16 -8 12 -55 12 -55 0z"/>
<path d="M1256 2751 c-4 -7 -5 -15 -2 -18 9 -9 19 4 14 18 -4 11 -6 11 -12 0z"/>
<path d="M2969 2699 c35 -21 47 -20 38 6 -4 9 -19 15 -39 15 l-33 0 34 -21z"/>
<path d="M2568 2683 c7 -3 16 -2 19 1 4 3 -2 6 -13 5 -11 0 -14 -3 -6 -6z"/>
<path d="M1143 2668 c-28 -13 -30 -28 -5 -28 19 0 42 18 42 32 0 10 -10 9 -37
-4z"/>
<path d="M3426 2565 c-3 -8 -2 -24 2 -35 11 -30 36 -9 28 24 -7 29 -21 34 -30
11z"/>
<path d="M3271 2541 c-8 -6 -9 -11 -3 -15 6 -3 14 -1 17 5 9 14 2 20 -14 10z"/>
<path d="M3300 2500 c0 -19 20 -27 33 -13 8 7 -11 33 -24 33 -5 0 -9 -9 -9
-20z"/>
<path d="M3358 2494 c-8 -7 2 -44 12 -44 11 0 21 30 14 41 -6 10 -18 12 -26 3z"/>
<path d="M930 2454 c0 -17 22 -14 28 4 2 7 -3 12 -12 12 -9 0 -16 -7 -16 -16z"/>
<path d="M2826 2461 c-4 -5 -2 -12 3 -15 5 -4 12 -2 15 3 4 5 2 12 -3 15 -5 4
-12 2 -15 -3z"/>
<path d="M2987 2464 c-11 -12 3 -24 28 -24 13 0 25 -4 27 -9 2 -5 15 -13 31
-16 43 -11 34 17 -13 38 -43 18 -63 21 -73 11z"/>
<path d="M3471 2414 c0 -11 3 -14 6 -6 3 7 2 16 -1 19 -3 4 -6 -2 -5 -13z"/>
<path d="M2891 2401 c-11 -7 -9 -10 8 -16 24 -7 44 2 36 16 -8 11 -26 11 -44
0z"/>
<path d="M3115 2390 c-4 -6 7 -10 24 -10 17 0 31 5 31 10 0 6 -11 10 -24 10
-14 0 -28 -4 -31 -10z"/>
<path d="M880 2364 c0 -8 5 -12 10 -9 6 3 10 10 10 16 0 5 -4 9 -10 9 -5 0
-10 -7 -10 -16z"/>
<path d="M2830 2345 c1 -26 2 -28 11 -12 8 14 8 22 0 30 -8 8 -11 3 -11 -18z"/>
<path d="M3008 2353 c6 -2 18 -2 25 0 6 3 1 5 -13 5 -14 0 -19 -2 -12 -5z"/>
<path d="M2307 2344 c-9 -10 2 -24 18 -24 9 0 12 6 9 15 -6 16 -17 19 -27 9z"/>
<path d="M2720 2335 c0 -9 9 -15 25 -15 16 0 25 6 25 15 0 9 -9 15 -25 15 -16
0 -25 -6 -25 -15z"/>
<path d="M2345 2311 c-8 -14 5 -41 20 -41 7 0 15 6 18 13 6 15 -29 41 -38 28z"/>
<path d="M2055 2300 c-4 -6 10 -10 35 -10 25 0 39 4 35 10 -3 6 -19 10 -35 10
-16 0 -32 -4 -35 -10z"/>
<path d="M2620 2302 c0 -5 12 -15 28 -23 15 -7 30 -15 33 -17 13 -6 19 32 7
40 -17 10 -68 10 -68 0z"/>
<path d="M3330 2300 c0 -5 5 -10 10 -10 6 0 10 5 10 10 0 6 -4 10 -10 10 -5 0
-10 -4 -10 -10z"/>
<path d="M2790 2269 c0 -29 -2 -30 -35 -28 -19 2 -34 -1 -32 -6 2 -10 47 -11
72 -1 17 6 21 66 5 66 -5 0 -10 -14 -10 -31z"/>
<path d="M2260 2270 c0 -5 9 -10 21 -10 11 0 17 5 14 10 -3 6 -13 10 -21 10
-8 0 -14 -4 -14 -10z"/>
<path d="M3330 2220 c0 -24 15 -27 24 -4 9 22 8 24 -9 24 -8 0 -15 -9 -15 -20z"/>
<path d="M3430 2207 c0 -19 10 -27 26 -20 21 8 17 33 -6 33 -11 0 -20 -6 -20
-13z"/>
<path d="M5154 2204 c3 -9 6 -18 6 -20 0 -2 5 -4 10 -4 6 0 10 9 10 20 0 12
-7 20 -16 20 -11 0 -14 -5 -10 -16z"/>
<path d="M3369 2168 c-1 -7 -1 -19 0 -27 2 -7 -2 -10 -9 -6 -7 5 -7 0 1 -13 7
-12 15 -19 17 -17 10 9 10 75 2 75 -6 0 -11 -6 -11 -12z"/>
<path d="M2210 2100 c20 -13 90 -13 90 0 0 6 -24 10 -52 10 -38 0 -49 -3 -38
-10z"/>
<path d="M1040 2049 c0 -5 5 -7 10 -4 6 3 10 8 10 11 0 2 -4 4 -10 4 -5 0 -10
-5 -10 -11z"/>
<path d="M1109 2009 c-10 -6 -4 -9 19 -9 17 0 32 2 32 4 0 9 -39 13 -51 5z"/>
<path d="M1510 2010 c0 -5 5 -10 10 -10 6 0 10 5 10 10 0 6 -4 10 -10 10 -5 0
-10 -4 -10 -10z"/>
<path d="M2415 2010 c-3 -5 -1 -10 4 -10 6 0 11 5 11 10 0 6 -2 10 -4 10 -3 0
-8 -4 -11 -10z"/>
<path d="M1334 1978 c-9 -14 23 -38 53 -38 26 0 27 3 13 31 -12 21 -55 26 -66
7z"/>
<path d="M746 1961 c-4 -7 -5 -15 -2 -18 9 -9 19 4 14 18 -4 11 -6 11 -12 0z"/>
<path d="M1565 1820 c-3 -5 3 -10 14 -10 12 0 21 5 21 10 0 6 -6 10 -14 10 -8
0 -18 -4 -21 -10z"/>
<path d="M2310 1810 c0 -5 7 -7 15 -4 8 4 15 8 15 10 0 2 -7 4 -15 4 -8 0 -15
-4 -15 -10z"/>
<path d="M1490 1790 c0 -5 9 -10 20 -10 11 0 20 5 20 10 0 6 -9 10 -20 10 -11
0 -20 -4 -20 -10z"/>
<path d="M1705 1790 c-3 -5 -2 -10 4 -10 5 0 13 5 16 10 3 6 2 10 -4 10 -5 0
-13 -4 -16 -10z"/>
<path d="M2310 1709 c0 -11 5 -17 10 -14 6 3 10 13 10 21 0 8 -4 14 -10 14 -5
0 -10 -9 -10 -21z"/>
<path d="M1660 1659 c0 -5 5 -9 10 -9 6 0 12 0 15 0 14 0 8 13 -7 16 -10 1
-18 -2 -18 -7z"/>
<path d="M2340 1586 c0 -14 5 -26 10 -26 6 0 10 9 10 19 0 11 -4 23 -10 26 -6
4 -10 -5 -10 -19z"/>
<path d="M1765 1590 c4 -6 11 -8 16 -5 14 9 11 15 -7 15 -8 0 -12 -5 -9 -10z"/>
<path d="M1952 1484 c5 -26 35 -41 50 -26 11 11 9 16 -6 28 -26 19 -48 18 -44
-2z"/>
<path d="M2310 1472 c0 -11 7 -22 15 -26 8 -3 15 -16 15 -30 0 -14 5 -28 10
-31 15 -9 12 28 -6 63 -19 39 -34 49 -34 24z"/>
<path d="M1917 1404 c-15 -15 15 -44 45 -44 l31 0 -23 25 c-23 25 -41 31 -53
19z"/>
<path d="M1991 1351 c-17 -11 -10 -46 9 -46 17 0 26 33 13 46 -4 4 -14 4 -22
0z"/>
<path d="M2310 1330 c0 -5 5 -10 10 -10 6 0 10 5 10 10 0 6 -4 10 -10 10 -5 0
-10 -4 -10 -10z"/>
<path d="M2411 1124 c0 -11 3 -14 6 -6 3 7 2 16 -1 19 -3 4 -6 -2 -5 -13z"/>
<path d="M2420 1066 c0 -3 5 -17 12 -31 8 -18 14 -22 20 -13 12 20 10 26 -12
38 -11 6 -20 9 -20 6z"/>
<path d="M2287 1029 c4 -13 8 -18 11 -10 2 7 -1 18 -6 23 -8 8 -9 4 -5 -13z"/>
<path d="M2500 885 c0 -8 4 -15 10 -15 5 0 7 7 4 15 -4 8 -8 15 -10 15 -2 0
-4 -7 -4 -15z"/>
<path d="M2493 811 c-13 -22 -8 -31 19 -31 19 0 22 8 12 34 -8 21 -17 20 -31
-3z"/>
<path d="M2545 760 c3 -5 8 -10 11 -10 2 0 4 5 4 10 0 6 -5 10 -11 10 -5 0 -7
-4 -4 -10z"/>
<path d="M2595 710 c-7 -12 2 -30 16 -30 5 0 9 9 9 20 0 21 -15 27 -25 10z"/>
<path d="M3510 1943 c1 -21 21 -33 63 -39 56 -8 66 11 12 22 -19 3 -38 10 -41
15 -6 11 -34 12 -34 2z"/>
<path d="M3643 1873 c20 -8 37 -19 37 -24 0 -5 7 -9 15 -9 8 0 32 -9 52 -20
21 -11 43 -20 50 -20 6 0 13 -6 16 -12 2 -7 8 -10 12 -6 11 10 -25 44 -75 68
-25 12 -53 26 -62 31 -10 5 -32 9 -50 8 l-33 0 38 -16z"/>
<path d="M2976 2006 c10 -27 64 -27 64 0 0 9 -11 14 -35 14 -25 0 -33 -4 -29
-14z"/>
<path d="M5385 1800 c-3 -5 -1 -10 4 -10 6 0 11 5 11 10 0 6 -2 10 -4 10 -3 0
-8 -4 -11 -10z"/>
<path d="M5356 1771 c-4 -7 -5 -15 -2 -18 9 -9 19 4 14 18 -4 11 -6 11 -12 0z"/>
<path d="M5392 1733 c-22 -9 -2 -23 34 -23 35 0 46 13 18 24 -18 7 -33 7 -52
-1z"/>
<path d="M5420 1522 c9 -4 15 -21 15 -42 0 -38 12 -63 26 -54 5 3 9 25 9 48 0
37 -4 45 -22 50 -30 8 -47 6 -28 -2z"/>
<path d="M5527 1487 c-3 -9 -2 -27 3 -39 8 -21 9 -21 10 -3 0 17 2 17 10 5 8
-12 10 -9 10 13 0 16 -4 26 -9 23 -5 -4 -11 -1 -13 6 -3 8 -7 6 -11 -5z"/>
<path d="M5196 1394 c-14 -37 15 -40 34 -3 9 16 7 19 -9 19 -10 0 -22 -7 -25
-16z"/>
<path d="M5350 1340 c0 -5 5 -10 10 -10 6 0 10 5 10 10 0 6 -4 10 -10 10 -5 0
-10 -4 -10 -10z"/>
<path d="M5285 1320 c-3 -6 1 -13 10 -16 19 -8 30 0 20 15 -8 14 -22 14 -30 1z"/>
<path d="M5120 1310 c0 -5 7 -10 15 -10 8 0 15 5 15 10 0 6 -7 10 -15 10 -8 0
-15 -4 -15 -10z"/>
<path d="M4960 1160 c0 -14 7 -20 21 -20 15 0 19 4 15 16 -3 9 -6 18 -6 20 0
2 -7 4 -15 4 -8 0 -15 -9 -15 -20z"/>
<path d="M4861 1074 c0 -11 3 -14 6 -6 3 7 2 16 -1 19 -3 4 -6 -2 -5 -13z"/>
</g>
</svg>
